<svg width="28" height="28" viewBox="0 0 28 28" fill="none" xmlns="http://www.w3.org/2000/svg">
<path d="M9.91675 25.667C10.8832 25.667 11.6667 24.8835 11.6667 23.917C11.6667 22.9505 10.8832 22.167 9.91675 22.167C8.95025 22.167 8.16675 22.9505 8.16675 23.917C8.16675 24.8835 8.95025 25.667 9.91675 25.667Z" fill="white"/>
<path d="M21.5833 25.667C22.5498 25.667 23.3333 24.8835 23.3333 23.917C23.3333 22.9505 22.5498 22.167 21.5833 22.167C20.6168 22.167 19.8333 22.9505 19.8333 23.917C19.8333 24.8835 20.6168 25.667 21.5833 25.667Z" fill="white"/>
<path d="M26.6321 4.55945C26.5541 4.46805 26.4557 4.39421 26.3441 4.34323C26.2325 4.29226 26.1105 4.26542 25.9866 4.26464H8.53435L9.07921 5.8582H24.8885L22.6504 15.4195H10.0767L6.24594 3.89016C6.2045 3.76782 6.13255 3.65682 6.03621 3.56664C5.93988 3.47646 5.82202 3.40976 5.6927 3.37225L2.25589 2.36831C2.15021 2.33744 2.03917 2.32666 1.92911 2.33658C1.81905 2.34651 1.71212 2.37694 1.61444 2.42614C1.41715 2.52551 1.26947 2.6953 1.20389 2.89817C1.1383 3.10103 1.16019 3.32035 1.26473 3.50788C1.36927 3.69541 1.5479 3.83578 1.76132 3.89812L4.77062 4.77458L8.61817 16.3279L7.24345 17.3956L7.13448 17.4991C6.79443 17.8716 6.60169 18.3452 6.58945 18.8382C6.57721 19.3312 6.74624 19.8129 7.06742 20.2002C7.29589 20.4643 7.58622 20.6739 7.91517 20.8123C8.24412 20.9506 8.60258 21.0139 8.96186 20.997H22.9522C23.1745 20.997 23.3877 20.913 23.5449 20.7636C23.7021 20.6142 23.7904 20.4115 23.7904 20.2002C23.7904 19.9889 23.7021 19.7862 23.5449 19.6368C23.3877 19.4874 23.1745 19.4034 22.9522 19.4034H8.82774C8.73121 19.4003 8.63716 19.3736 8.55468 19.3258C8.47221 19.278 8.40408 19.2108 8.35689 19.1307C8.3097 19.0506 8.28504 18.9603 8.28529 18.8685C8.28554 18.7767 8.31069 18.6865 8.35832 18.6067L10.3785 17.0131H23.321C23.5148 17.0176 23.7042 16.9581 23.857 16.8448C24.0099 16.7315 24.1167 16.5714 24.1593 16.3916L26.8165 5.23671C26.842 5.11793 26.8386 4.99518 26.8067 4.87781C26.7747 4.76045 26.715 4.65156 26.6321 4.55945Z" fill="white"/>
</svg>
