<svg width="24" height="24" viewBox="0 0 24 24" fill="none" xmlns="http://www.w3.org/2000/svg">
<path d="M23.5914 7.21995C23.5784 6.24023 23.3947 5.27026 23.0485 4.35341C22.7484 3.58005 22.2899 2.87771 21.7025 2.29125C21.1151 1.70479 20.4115 1.24711 19.6369 0.947452C18.7303 0.607706 17.7726 0.423999 16.8044 0.404154C15.558 0.348531 15.1628 0.333008 11.9986 0.333008C8.83447 0.333008 8.42891 0.333008 7.1915 0.404154C6.2238 0.424145 5.26651 0.607849 4.36035 0.947452C3.58559 1.2469 2.88196 1.7045 2.2945 2.29099C1.70703 2.87748 1.24866 3.57993 0.948719 4.35341C0.607726 5.25778 0.424112 6.2137 0.405812 7.17985C0.350096 8.42555 0.333252 8.82009 0.333252 11.979C0.333252 15.1379 0.333252 15.5415 0.405812 16.7781C0.425248 17.7457 0.607945 18.7003 0.948719 19.6071C1.24917 20.3804 1.70788 21.0825 2.29554 21.6688C2.8832 22.255 3.58689 22.7124 4.36165 23.0118C5.26533 23.3652 6.22278 23.5621 7.1928 23.5939C8.44057 23.6495 8.83577 23.6663 11.9999 23.6663C15.1641 23.6663 15.5696 23.6663 16.807 23.5939C17.7751 23.5749 18.7329 23.3916 19.6395 23.0519C20.4139 22.7519 21.1173 22.2941 21.7047 21.7077C22.2921 21.1213 22.7506 20.4191 23.0511 19.6459C23.3919 18.7404 23.5746 17.7858 23.594 16.8169C23.6497 15.5725 23.6666 15.178 23.6666 12.0178C23.664 8.8589 23.664 8.45789 23.5914 7.21995ZM11.9908 17.9527C8.68158 17.9527 6.00073 15.2763 6.00073 11.9725C6.00073 8.66874 8.68158 5.99236 11.9908 5.99236C13.5795 5.99236 15.1031 6.62241 16.2265 7.7439C17.3499 8.8654 17.981 10.3865 17.981 11.9725C17.981 13.5585 17.3499 15.0796 16.2265 16.2011C15.1031 17.3226 13.5795 17.9527 11.9908 17.9527ZM18.2194 7.16562C18.0359 7.16579 17.8542 7.12984 17.6846 7.05982C17.5151 6.9898 17.3611 6.88709 17.2313 6.75757C17.1016 6.62805 16.9987 6.47426 16.9286 6.305C16.8584 6.13574 16.8224 5.95433 16.8226 5.77116C16.8226 5.58812 16.8587 5.40687 16.9289 5.23777C16.999 5.06866 17.1019 4.91501 17.2315 4.78558C17.3612 4.65615 17.5151 4.55348 17.6844 4.48344C17.8538 4.41339 18.0354 4.37734 18.2187 4.37734C18.4021 4.37734 18.5836 4.41339 18.753 4.48344C18.9224 4.55348 19.0763 4.65615 19.2059 4.78558C19.3356 4.91501 19.4384 5.06866 19.5086 5.23777C19.5788 5.40687 19.6149 5.58812 19.6149 5.77116C19.6149 6.54212 18.9903 7.16562 18.2194 7.16562Z" fill="#003F5A"/>
</svg>
