<svg width="28" height="28" viewBox="0 0 28 28" fill="none" xmlns="http://www.w3.org/2000/svg">
<path d="M9.29445 11.5353L7.17777 10.127L2 13.8881L6.4736 16.2409" stroke="white" stroke-width="1.5" stroke-miterlimit="10" stroke-linecap="round" stroke-linejoin="round"/>
<path d="M10 11.5361H9.29448L6.47363 16.2417H13.2959H14.7042H21.5264L18.7056 11.5361H18" stroke="white" stroke-width="1.5" stroke-miterlimit="10" stroke-linecap="round" stroke-linejoin="round"/>
<path d="M18.7056 11.5353L20.8222 10.127L26 13.8881L21.5264 16.2409" stroke="white" stroke-width="1.5" stroke-miterlimit="10" stroke-linecap="round" stroke-linejoin="round"/>
<path d="M21.5264 16.3115L20.3293 24.1113H7.67073L6.47363 16.3115" stroke="white" stroke-width="1.5" stroke-miterlimit="10" stroke-linecap="round" stroke-linejoin="round"/>
<path fill-rule="evenodd" clip-rule="evenodd" d="M18.8 6.1534C18.8 3.3072 16.749 1 13.9014 1C11.0552 1 9 3.3072 9 6.1534C9 8.287 10.3748 12.0954 13.5584 14.4838C13.7614 14.6378 14.0414 14.6378 14.2444 14.4838C17.4308 12.0954 18.8 8.287 18.8 6.1534ZM15.3849 7.38352C15.7788 6.9897 16 6.45556 16 5.8986C16 5.34165 15.7788 4.8075 15.3849 4.41368C14.9911 4.01985 14.457 3.7986 13.9 3.7986C13.343 3.7986 12.8089 4.01985 12.4151 4.41368C12.0212 4.8075 11.8 5.34165 11.8 5.8986C11.8 6.45556 12.0212 6.9897 12.4151 7.38352C12.8089 7.77735 13.343 7.9986 13.9 7.9986C14.457 7.9986 14.9911 7.77735 15.3849 7.38352Z" fill="white"/>
</svg>
