<svg width="28" height="28" viewBox="0 0 28 28" fill="none" xmlns="http://www.w3.org/2000/svg">
<path d="M14.5833 25.6663L13.9514 26.0703C14.0892 26.2859 14.3275 26.4163 14.5833 26.4163C14.8392 26.4163 15.0774 26.2859 15.2152 26.0703L14.5833 25.6663ZM17.2429 9.83301C17.2429 11.2439 16.0683 12.4163 14.5834 12.4163V13.9163C16.8646 13.9163 18.7429 12.1041 18.7429 9.83301H17.2429ZM14.5834 12.4163C13.0986 12.4163 11.9239 11.2439 11.9239 9.83301H10.4239C10.4239 12.1041 12.3023 13.9163 14.5834 13.9163V12.4163ZM11.9239 9.83301C11.9239 8.42216 13.0986 7.24968 14.5834 7.24968V5.74968C12.3023 5.74968 10.4239 7.56197 10.4239 9.83301H11.9239ZM14.5834 7.24968C16.0683 7.24968 17.2429 8.42216 17.2429 9.83301H18.7429C18.7429 7.56197 16.8646 5.74968 14.5834 5.74968V7.24968ZM20.7154 12.8652C19.4532 15.7446 17.7643 18.8419 16.3846 21.2285C15.6959 22.4196 15.0868 23.4295 14.65 24.1412C14.4316 24.497 14.2565 24.7781 14.1362 24.9699C14.076 25.0657 14.0296 25.1393 13.9983 25.1886C13.9826 25.2133 13.9708 25.232 13.9629 25.2443C13.959 25.2505 13.956 25.2551 13.9541 25.2581C13.9532 25.2596 13.9525 25.2608 13.952 25.2615C13.9518 25.2618 13.9516 25.2621 13.9515 25.2622C13.9515 25.2623 13.9514 25.2623 13.9514 25.2624C13.9514 25.2624 13.9514 25.2624 14.5833 25.6663C15.2152 26.0703 15.2153 26.0702 15.2153 26.0702C15.2154 26.0701 15.2155 26.07 15.2155 26.0698C15.2157 26.0696 15.2159 26.0692 15.2162 26.0688C15.2168 26.0679 15.2176 26.0665 15.2187 26.0648C15.2209 26.0614 15.2241 26.0564 15.2283 26.0497C15.2368 26.0365 15.2492 26.017 15.2654 25.9914C15.2978 25.9403 15.3454 25.8649 15.4067 25.7671C15.5295 25.5715 15.7073 25.2862 15.9284 24.9258C16.3707 24.2052 16.9868 23.1839 17.6832 21.9792C19.0737 19.5741 20.7943 16.4214 22.0892 13.4675L20.7154 12.8652ZM14.5833 25.6663C15.2152 25.2624 15.2153 25.2624 15.2152 25.2624C15.2152 25.2623 15.2152 25.2623 15.2151 25.2622C15.2151 25.2621 15.2149 25.2618 15.2147 25.2615C15.2142 25.2608 15.2135 25.2596 15.2125 25.2581C15.2106 25.2551 15.2077 25.2505 15.2037 25.2443C15.1959 25.232 15.184 25.2133 15.1684 25.1886C15.1371 25.1393 15.0907 25.0657 15.0305 24.9699C14.9102 24.7781 14.735 24.497 14.5167 24.1412C14.0799 23.4295 13.4707 22.4196 12.7821 21.2285C11.4023 18.8419 9.71345 15.7446 8.45125 12.8652L7.07745 13.4675C8.37237 16.4214 10.093 19.5741 11.4835 21.9792C12.1799 23.1839 12.796 24.2052 13.2382 24.9258C13.4594 25.2862 13.6372 25.5715 13.7599 25.7671C13.8213 25.8649 13.8689 25.9403 13.9013 25.9914C13.9175 26.017 13.9299 26.0365 13.9383 26.0497C13.9425 26.0564 13.9457 26.0614 13.9479 26.0648C13.949 26.0665 13.9499 26.0679 13.9504 26.0688C13.9507 26.0692 13.951 26.0696 13.9511 26.0698C13.9512 26.07 13.9513 26.0701 13.9513 26.0702C13.9514 26.0702 13.9514 26.0703 14.5833 25.6663ZM8.45125 12.8652C7.27496 10.1819 7.68042 7.75135 8.91155 5.99221C10.1554 4.21482 12.2695 3.08301 14.5833 3.08301V1.58301C11.783 1.58301 9.20893 2.9512 7.68261 5.13214C6.14353 7.33133 5.69662 10.3175 7.07745 13.4675L8.45125 12.8652ZM14.5833 3.08301C16.8972 3.08301 19.0112 4.21482 20.2551 5.99221C21.4862 7.75135 21.8917 10.1819 20.7154 12.8652L22.0892 13.4675C23.4701 10.3175 23.0231 7.33133 21.4841 5.13214C19.9577 2.9512 17.3837 1.58301 14.5833 1.58301V3.08301Z" fill="white"/>
</svg>
