<svg width="24" height="24" viewBox="0 0 24 24" fill="none" xmlns="http://www.w3.org/2000/svg">
<path d="M23.073 17.9131C23.0124 17.8524 22.8231 17.716 22.5051 17.5037C22.1871 17.2915 21.816 17.0451 21.392 16.7646L20.1199 15.9232L18.9842 15.1727L18.3481 14.7747C18.2875 14.7292 18.2156 14.6913 18.1323 14.661C18.049 14.6307 17.9657 14.6079 17.8824 14.5928C17.7992 14.5776 17.7121 14.57 17.6212 14.57C17.5606 14.57 17.5076 14.5738 17.4622 14.5814C17.4168 14.589 17.3676 14.5965 17.3146 14.6041C17.2616 14.6117 17.2048 14.6231 17.1442 14.6382C17.0836 14.6534 17.0268 14.6686 16.9738 14.6837C16.9208 14.6989 16.8678 14.7178 16.8148 14.7406C16.7618 14.7633 16.705 14.7861 16.6444 14.8088C16.5839 14.8315 16.5309 14.8581 16.4854 14.8884C16.1977 15.04 15.5087 15.4266 14.4183 16.0482C13.4945 15.3963 12.3436 14.3805 10.9655 13.0008C9.60258 11.6363 8.59552 10.4916 7.94434 9.56676C8.56523 8.45998 8.9514 7.77014 9.10284 7.49724C9.49658 6.73917 9.53444 6.10997 9.21642 5.60965C9.04984 5.35191 8.51602 4.54077 7.61496 3.17625C6.71391 1.81173 6.2028 1.04608 6.08165 0.879305C5.82421 0.515432 5.43047 0.333496 4.90044 0.333496C4.76414 0.333496 4.63164 0.348657 4.50291 0.37898C4.37419 0.409303 4.24547 0.450997 4.11675 0.504061C3.98803 0.557126 3.86309 0.621562 3.74194 0.697369C3.66622 0.758014 3.54128 0.856563 3.36713 0.993015C3.19298 1.12947 2.91282 1.36068 2.52665 1.68665C2.14048 2.01262 1.79596 2.33101 1.49309 2.64181C1.19021 2.95262 0.917624 3.29375 0.675323 3.66521C0.433023 4.03666 0.319444 4.35884 0.334588 4.63174C0.349732 5.26852 0.46331 5.93941 0.675323 6.64441C0.887336 7.34942 1.17507 8.05063 1.53852 8.74805C1.90197 9.44547 2.30707 10.1353 2.75381 10.8176C3.20055 11.4998 3.70408 12.1821 4.2644 12.8644C4.82472 13.5466 5.36232 14.172 5.87721 14.7406C6.3921 15.3091 6.93728 15.8815 7.51274 16.4576C8.40622 17.3521 9.29971 18.1822 10.1932 18.9479C11.0867 19.7135 12.0597 20.464 13.1122 21.1993C14.1646 21.9346 15.2323 22.5221 16.3151 22.9618C17.3978 23.4015 18.4163 23.6365 19.3703 23.6668H19.393C19.6505 23.6668 19.9609 23.5455 20.3244 23.303C20.6878 23.0604 21.0248 22.7837 21.3352 22.4729C21.6457 22.1621 21.9637 21.8209 22.2893 21.4495C22.6149 21.078 22.8458 20.8013 22.9821 20.6194L23.2547 20.2555C23.7242 19.5884 23.7923 18.9516 23.4591 18.3452C23.3531 18.1633 23.2244 18.0192 23.073 17.9131ZM22.0735 19.3913C21.6192 20.0281 21.1119 20.6308 20.5515 21.1993C19.9912 21.7679 19.5823 22.1052 19.3249 22.2113C17.962 22.1355 16.3529 21.5177 14.4978 20.3579C12.6427 19.198 10.6589 17.5568 8.5463 15.4342C6.43375 13.3116 4.79443 11.3217 3.62836 9.46443C2.46229 7.60716 1.84897 6.00384 1.78839 4.65448C1.87925 4.39674 2.20863 3.98738 2.77652 3.42641C3.34441 2.86544 3.94638 2.35754 4.58242 1.9027C4.61271 1.87237 4.64299 1.84963 4.67328 1.83447C4.70357 1.81931 4.73764 1.80794 4.7755 1.80036C4.81336 1.79278 4.85501 1.78899 4.90044 1.78899C4.91558 1.78899 4.93073 1.79657 4.94587 1.81173C5.8545 3.11561 6.85399 4.62416 7.94434 6.33739C7.94434 6.45869 7.89891 6.61788 7.80804 6.81498C7.77776 6.86046 7.7399 6.92869 7.69447 7.01966C7.64904 7.11062 7.59225 7.21675 7.5241 7.33804C7.45595 7.45934 7.37645 7.59579 7.28558 7.7474C7.19472 7.89901 7.10007 8.06579 7.00164 8.24773C6.9032 8.42966 6.79341 8.62676 6.67226 8.83902L6.21795 9.63499L6.74041 10.3855C7.45217 11.4013 8.5198 12.6218 9.94332 14.0469C11.3668 15.4721 12.5783 16.5334 13.5778 17.2308L14.3274 17.7766L15.1452 17.3218C15.5844 17.0641 15.9933 16.8253 16.3719 16.6054C16.7504 16.3856 17.0155 16.2453 17.1669 16.1847C17.3335 16.0786 17.4849 16.0255 17.6212 16.0255H17.6439C18.8706 16.7987 20.385 17.807 22.1871 19.0502C22.2022 19.1563 22.1644 19.27 22.0735 19.3913Z" fill="#003F5A"/>
</svg>
