<svg width="28" height="28" viewBox="0 0 28 28" fill="none" xmlns="http://www.w3.org/2000/svg">
<path d="M25.9907 9.12423L24.2778 3.62454C24.2182 3.43482 24.1022 3.27119 23.9476 3.15864C23.7929 3.04609 23.6081 2.99081 23.4213 3.00125H4.5787C4.39193 2.99081 4.2071 3.04609 4.05245 3.15864C3.89779 3.27119 3.78181 3.43482 3.72222 3.62454L2.00925 9.12423C1.99692 9.22156 1.99692 9.32022 2.00925 9.41755V14.9172C2.00925 15.1603 2.09949 15.3935 2.26011 15.5654C2.42073 15.7373 2.63858 15.8339 2.86574 15.8339H3.72222V25H5.43518V15.8339H10.5741V25H24.2778V15.8339H25.1343C25.3614 15.8339 25.5793 15.7373 25.7399 15.5654C25.9005 15.3935 25.9907 15.1603 25.9907 14.9172V9.41755C26.0031 9.32022 26.0031 9.22156 25.9907 9.12423ZM22.5648 23.1668H12.287V15.8339H22.5648V23.1668ZM24.2778 14.0006H20.8519V10.3342H19.1389V14.0006H14.8565V10.3342H13.1435V14.0006H8.86111V10.3342H7.14815V14.0006H3.72222V9.56421L5.19537 4.83448H22.8046L24.2778 9.56421V14.0006Z" fill="white"/>
</svg>
