<svg width="26" height="22" viewBox="0 0 26 22" fill="none" xmlns="http://www.w3.org/2000/svg">
<path d="M22.6252 1.00021H22.6382L22.6512 0.999534C22.733 0.995265 22.8139 1.01788 22.8817 1.06393C22.9492 1.10988 22.9999 1.17665 23.0261 1.25407C23.0261 1.25422 23.0262 1.25438 23.0262 1.25454L24.7586 6.45158C24.7608 6.48706 24.7595 6.5227 24.7547 6.55799L24.7502 6.59145V6.62521V11.8752C24.7502 11.9747 24.7107 12.0701 24.6403 12.1404C24.57 12.2107 24.4746 12.2502 24.3752 12.2502H23.5002H23.0002V12.7502V21.0002H10.0002V12.7502V12.2502H9.50018H4.25018H3.75018V12.7502V21.0002H3.00018V12.7502V12.2502H2.50018H1.62518C1.52572 12.2502 1.43034 12.2107 1.36001 12.1404C1.28969 12.0701 1.25018 11.9747 1.25018 11.8752V6.62521V6.59145L1.24564 6.55799C1.24085 6.5227 1.23956 6.48706 1.24177 6.45158L2.97412 1.25453C2.97417 1.25437 2.97423 1.2542 2.97428 1.25404C3.00042 1.17663 3.05113 1.10987 3.1187 1.06393C3.18642 1.01788 3.26734 0.995265 3.34912 0.999534L3.36214 1.00021H3.37518H22.6252ZM21.7502 20.2502H22.2502V19.7502V12.7502V12.2502H21.7502H11.2502H10.7502V12.7502V19.7502V20.2502H11.2502H21.7502ZM23.5002 11.5002H24.0002V11.0002V6.76521V6.68407L23.9745 6.6071L22.4695 2.0921L22.3556 1.75021H21.9952H4.00518H3.6448L3.53084 2.0921L2.02584 6.6071L2.00018 6.68407V6.76521V11.0002V11.5002H2.50018H6.00018H6.50018V11.0002V8.00021H7.25018V11.0002V11.5002H7.75018H12.1252H12.6252V11.0002V8.00021H13.3752V11.0002V11.5002H13.8752H18.2502H18.7502V11.0002V8.00021H19.5002V11.0002V11.5002H20.0002H23.5002Z" fill="white" stroke="#003F5A"/>
</svg>
