<svg width="28" height="28" viewBox="0 0 28 28" fill="none" xmlns="http://www.w3.org/2000/svg">
<path d="M23.2694 9.31904C23.2848 9.52369 23.2848 9.72718 23.2848 9.93066C23.2848 16.158 18.4726 23.3337 9.67805 23.3337C6.96857 23.3337 4.45144 22.5607 2.33325 21.2181C2.71795 21.2614 3.08839 21.2766 3.48852 21.2766C5.64113 21.2817 7.73279 20.5728 9.42634 19.264C8.4283 19.2462 7.46081 18.9219 6.65896 18.3363C5.85712 17.7507 5.26094 16.9332 4.95368 15.9977C5.24932 16.041 5.54616 16.0702 5.85724 16.0702C6.28586 16.0702 6.71686 16.0118 7.11699 15.91C6.03386 15.6946 5.05992 15.1164 4.36075 14.2736C3.66159 13.4308 3.28037 12.3756 3.28193 11.2872V11.2287C3.91952 11.5784 4.65922 11.7971 5.44286 11.8263C4.78637 11.3967 4.24808 10.8136 3.87599 10.1292C3.50391 9.44482 3.30961 8.68036 3.31042 7.90401C3.31042 7.02927 3.5467 6.22703 3.96108 5.5277C5.16281 6.98368 6.66165 8.17481 8.36052 9.02394C10.0594 9.87307 11.9204 10.3613 13.823 10.4569C13.7494 10.1061 13.7043 9.74238 13.7043 9.37751C13.704 8.75883 13.8275 8.14616 14.0677 7.57451C14.3079 7.00287 14.6602 6.48346 15.1044 6.04599C15.5485 5.60851 16.0759 5.26155 16.6563 5.02493C17.2366 4.78832 17.8587 4.66669 18.4868 4.66699C19.8641 4.66699 21.1073 5.23534 21.9811 6.15453C23.0518 5.95059 24.0786 5.56562 25.0159 5.01666C24.659 6.10519 23.9114 7.02822 22.9132 7.61282C23.8628 7.50614 24.7909 7.26018 25.6666 6.88309C25.0125 7.82227 24.202 8.64584 23.2694 9.31904Z" fill="#003F5A"/>
</svg>
