<svg width="24" height="24" viewBox="0 0 24 24" fill="none" xmlns="http://www.w3.org/2000/svg">
<path d="M14.2938 18.1824V15.7974C14.2938 15.2911 14.1469 15.0379 13.8532 15.0379C13.6811 15.0379 13.514 15.1189 13.3519 15.2809V18.6837C13.514 18.8457 13.6811 18.9268 13.8532 18.9268C14.1469 18.9268 14.2938 18.6786 14.2938 18.1824ZM17.0889 16.3291H18.0915V15.8126C18.0915 15.2961 17.9244 15.0379 17.5902 15.0379C17.256 15.0379 17.0889 15.2961 17.0889 15.8126V16.3291ZM8.41485 12.2883V13.3517H7.19957V19.7775H6.07544V13.3517H4.89054V12.2883H8.41485ZM11.4682 14.2024V19.7775H10.4504V19.1698C10.0555 19.6255 9.67064 19.8534 9.29593 19.8534C8.96172 19.8534 8.74905 19.7116 8.6579 19.4281C8.59714 19.2559 8.56676 18.9825 8.56676 18.6077V14.2024H9.56936V18.3039C9.56936 18.547 9.57443 18.6786 9.58455 18.6989C9.59468 18.8508 9.67064 18.9268 9.81242 18.9268C10.015 18.9268 10.2276 18.7698 10.4504 18.4558V14.2024H11.4682ZM15.2964 15.8886V18.1064C15.2964 18.6331 15.2609 19.0027 15.19 19.2154C15.0685 19.6407 14.8001 19.8534 14.3849 19.8534C14.0304 19.8534 13.6861 19.6458 13.3519 19.2306V19.7775H12.3341V12.2883H13.3519V14.734C13.676 14.329 14.0203 14.1264 14.3849 14.1264C14.8001 14.1264 15.0685 14.3391 15.19 14.7644C15.2609 14.9771 15.2964 15.3518 15.2964 15.8886ZM19.1093 17.8482V17.9849C19.1093 18.2786 19.0992 18.4963 19.0789 18.6381C19.0485 18.8609 18.9726 19.0635 18.851 19.2458C18.5776 19.6509 18.1725 19.8534 17.6358 19.8534C17.1091 19.8534 16.699 19.661 16.4053 19.2761C16.1926 19.0027 16.0863 18.5672 16.0863 17.9697V16.0101C16.0863 15.4126 16.1876 14.9771 16.3901 14.7037C16.6838 14.3188 17.0889 14.1264 17.6054 14.1264C18.1219 14.1264 18.5168 14.3188 18.7903 14.7037C19.003 14.9974 19.1093 15.4328 19.1093 16.0101V17.1646H17.0889V18.152C17.0889 18.6685 17.2611 18.9268 17.6054 18.9268C17.8484 18.9268 18.0004 18.7951 18.0611 18.5318C18.0611 18.5217 18.0636 18.4862 18.0687 18.4255C18.0738 18.3647 18.0763 18.2811 18.0763 18.1748V17.8482H19.1093ZM12.2582 5.33084V7.70063C12.2582 8.21712 12.0961 8.47537 11.7721 8.47537C11.448 8.47537 11.2859 8.21712 11.2859 7.70063V5.33084C11.2859 4.80422 11.448 4.54091 11.7721 4.54091C12.0961 4.54091 12.2582 4.80422 12.2582 5.33084ZM20.355 16.162C20.355 14.3695 20.2587 13.0529 20.0663 12.2123C19.965 11.7667 19.7473 11.3946 19.4131 11.0958C19.0789 10.7971 18.6941 10.6224 18.2586 10.5717C16.8813 10.4198 14.7951 10.3439 11.9999 10.3439C9.21491 10.3439 7.13374 10.4198 5.75643 10.5717C5.31083 10.6224 4.92346 10.7971 4.59432 11.0958C4.26518 11.3946 4.04998 11.7667 3.9487 12.2123C3.74616 13.0934 3.64488 14.41 3.64488 16.162C3.64488 17.9444 3.74616 19.261 3.9487 20.1117C4.04998 20.5471 4.26518 20.9168 4.59432 21.2206C4.92346 21.5244 5.30576 21.7016 5.74124 21.7523C7.12868 21.9042 9.21491 21.9801 11.9999 21.9801C14.7849 21.9801 16.8712 21.9042 18.2586 21.7523C18.6941 21.7016 19.0764 21.5244 19.4055 21.2206C19.7347 20.9168 19.9499 20.5471 20.0511 20.1117C20.2537 19.261 20.355 17.9444 20.355 16.162ZM8.88577 6.27268L10.253 1.77615H9.11363L8.33889 4.73839L7.53377 1.77615H6.34888C6.41977 2.00908 6.53623 2.35847 6.69827 2.82433L7.06285 3.8725C7.41731 4.91562 7.65024 5.71568 7.76164 6.27268V9.32606H8.88577V6.27268ZM13.276 7.50315V5.52832C13.276 4.94094 13.1696 4.5004 12.9569 4.20671C12.6633 3.82187 12.2683 3.62945 11.7721 3.62945C11.2556 3.62945 10.8606 3.82187 10.5872 4.20671C10.3745 4.5004 10.2681 4.94094 10.2681 5.52832V7.50315C10.2681 8.09053 10.3745 8.53107 10.5872 8.82476C10.8606 9.2096 11.2556 9.40202 11.7721 9.40202C12.2683 9.40202 12.6633 9.2096 12.9569 8.82476C13.1696 8.55132 13.276 8.11079 13.276 7.50315ZM16.0255 9.32606H17.0433V3.7054H16.0255V8.00445C15.8027 8.3184 15.5901 8.47537 15.3875 8.47537C15.2356 8.47537 15.1546 8.39435 15.1444 8.23231C15.1343 8.21206 15.1293 8.0804 15.1293 7.83735V3.7054H14.1115V8.15636C14.1115 8.53107 14.1418 8.80957 14.2026 8.99186C14.314 9.2653 14.5317 9.40202 14.8558 9.40202C15.2204 9.40202 15.6103 9.17415 16.0255 8.71842V9.32606ZM23.6666 4.70801V19.2913C23.6666 20.4965 23.2387 21.5269 22.3829 22.3827C21.5272 23.2385 20.4967 23.6663 19.2916 23.6663H4.70825C3.5031 23.6663 2.47265 23.2385 1.61689 22.3827C0.761131 21.5269 0.333252 20.4965 0.333252 19.2913V4.70801C0.333252 3.50286 0.761131 2.4724 1.61689 1.61664C2.47265 0.760887 3.5031 0.333008 4.70825 0.333008H19.2916C20.4967 0.333008 21.5272 0.760887 22.3829 1.61664C23.2387 2.4724 23.6666 3.50286 23.6666 4.70801Z" fill="#003F5A"/>
</svg>
