<svg width="145" height="145" viewBox="0 0 145 145" fill="none" xmlns="http://www.w3.org/2000/svg">
<g id="Frame 65" opacity="0.15">
<path id="Vector" d="M126.229 38.8617V36.7723H130.201C129.782 34.4741 128.215 34.0562 124.138 32.9071C121.421 32.1758 118.285 31.2356 113.582 29.4597H109.088L107.311 27.5793L110.969 26.3256C109.506 24.5497 106.788 21.8336 102.503 19.4308L102.294 19.3264C100.935 10.4467 102.294 17.0281 98.9493 2.29827L94.3504 5.74568L97.7996 16.7147C96.3363 15.879 95.7092 15.3566 95.1866 15.0432L94.9775 14.312C92.051 3.65634 91.5284 3.76081 85.4663 0C83.794 8.77522 82.6443 14.2075 81.8081 17.5504C80.2404 24.5497 80.8675 23.505 80.763 24.6542C80.3449 25.281 80.2403 25.6988 77.8364 29.4597C74.8053 34.4741 71.8788 39.1751 69.5794 45.5476L69.4749 45.8609C64.2489 61.9488 55.6783 72.0821 48.2575 80.9618C35.2971 96.3184 26.8311 107.705 36.2378 137.687C25.3678 132.464 12.8255 126.509 22.4412 87.5432C14.1842 101.646 6.24078 131.837 32.3706 142.911C35.5061 144.269 38.8507 144.896 42.1954 144.896H72.924V140.508C72.924 138.419 71.3562 136.643 69.2658 136.329L66.8619 136.016C73.9692 132.777 79.2997 125.465 79.2997 116.794C79.2997 113.347 78.4635 109.795 76.7912 106.765C76.2686 105.72 76.5822 104.467 77.6274 103.945C78.6726 103.422 79.9268 103.736 80.4494 104.78C82.0172 107.705 82.9579 110.839 83.3759 114.182C83.6895 116.898 84.1075 119.823 84.6301 122.54L89.02 145H103.026V143.537C103.026 141.553 101.667 139.777 99.6809 139.463L95.0821 138.523L94.1414 114.809C114.627 77.6189 99.9945 65.1873 99.8899 64.665C99.8899 64.5605 99.3674 59.964 99.9945 51.92C93.3052 46.8011 91.9465 47.428 89.7516 46.4878C100.308 47.1146 103.862 51.7111 112.328 51.7111C113.373 51.7111 114.418 51.7111 115.672 51.6066C119.958 51.3977 122.362 50.1441 123.825 47.3235L124.034 47.0101C124.766 46.2788 125.706 45.7565 129.678 40.2197L126.229 38.8617Z" fill="#003F5A"/>
</g>
</svg>
