<svg width="133" height="175" viewBox="0 0 133 175" fill="none" xmlns="http://www.w3.org/2000/svg">
<g id="Frame 64" opacity="0.15">
<g id="Group">
<path id="Vector" d="M20.8577 65.3455C26.3796 53.8286 36.2864 46.0425 48.467 43.4471C49.9287 19.9266 58.5363 2.24569 66.9815 -3.43167C72.8282 -7.32472 76.8884 -4.89157 80.299 -1.80957C72.5034 4.51663 60.1604 32.0924 59.6732 42.4738C61.4597 42.4738 62.9213 42.6361 63.8957 42.6361C76.5635 -1.80958 99.6255 -9.75792 103.848 0.785755C110.182 16.5202 77.8628 46.2047 77.7004 46.3669C81.7606 61.9391 79.162 73.9426 77.3755 78.6467C79.8117 77.8357 94.9156 70.0496 113.917 72.8072C127.884 74.9159 147.698 83.513 163.127 112.711C165.401 117.091 166.375 121.308 168.161 126.985C170.435 122.768 175.307 111.251 187.488 105.736C187.975 120.173 184.889 132.014 179.043 138.016C174.171 143.044 169.786 141.422 168.161 141.747C167.674 145.477 166.7 155.534 161.34 164.456C157.28 171.107 151.758 174.837 145.912 174.837C145.587 174.837 145.424 174.837 145.262 174.837C143.151 174.837 134.381 174.837 104.01 174.837C101.899 173.215 98.0014 169.485 98.651 167.376C98.8134 166.889 100.275 162.996 117.815 161.861C119.439 161.698 120.738 160.401 120.901 158.779C120.901 157.157 119.764 155.697 118.14 155.372C107.259 153.588 100.113 148.884 98.1638 142.071C96.5397 136.556 98.651 130.23 103.523 126.012C104.823 124.877 104.985 122.768 103.848 121.47C102.711 120.173 100.6 120.01 99.3006 121.146C92.6419 126.985 89.7185 135.907 91.9922 143.855C93.1291 147.586 95.8901 153.263 103.523 157.481C96.8645 159.265 93.1291 162.185 92.3171 166.24C91.6674 169.484 92.9668 172.567 94.9157 175H68.9304C59.8356 168.998 67.7935 165.105 81.7606 163.158L85.4959 150.668C47.9798 142.395 46.6806 102.005 46.3557 100.059C45.5437 99.5719 40.1843 95.841 35.6369 96.3277C34.9872 96.4899 25.5676 99.2474 20.2081 92.4346C15.8232 86.595 15.9855 75.4025 20.8577 65.3455ZM46.6806 68.4275C49.7663 68.4275 52.3648 65.8321 52.3648 62.7501C52.3648 59.6681 49.7663 57.0728 46.6806 57.0728C43.5948 57.0728 40.9963 59.6681 40.9963 62.7501C40.9963 65.8321 43.5948 68.4275 46.6806 68.4275Z" fill="#003F5A"/>
</g>
</g>
</svg>
