<svg width="138" height="115" viewBox="0 0 138 115" fill="none" xmlns="http://www.w3.org/2000/svg">
<g id="Frame 66" opacity="0.15">
<path id="Vector" fill-rule="evenodd" clip-rule="evenodd" d="M85.1471 127.748C83.0744 126.659 82.5601 124.167 83.6532 122.32C83.8697 121.859 84.0916 121.626 84.5407 121.388L83.5502 117.997L81.8241 121.908C82.5547 123.939 81.4725 126.242 79.4432 126.973C77.4138 127.704 74.8866 126.626 74.156 124.595C73.4253 122.563 74.5021 120.034 76.5315 119.302C76.9806 119.064 77.4351 119.053 77.8897 119.042L79.6213 115.359L76.9264 116.789C76.2933 118.853 74.0476 120.044 71.9857 119.411C69.6966 118.782 68.5059 116.534 69.139 114.47C69.7666 112.179 72.0124 110.987 74.0743 111.621C74.5343 111.837 74.9888 111.827 75.2216 112.049L79.7077 109.438L81.1089 101.436C64.7763 93.6302 24.5952 96.6364 23.6276 122.839C23.3356 129.676 26.664 135.743 30.8636 140.196C19.656 137.503 12.5935 127.427 12.3062 115.369C11.569 84.426 45.9007 93.6246 51.5441 72.774L43.5349 70.6883L39.2814 73.5214C39.2922 73.9765 39.3031 74.4315 39.3139 74.8866C38.9135 77.1726 36.6732 78.5919 34.6168 78.1856C32.3331 77.7847 30.9151 75.542 31.3209 73.4834C31.7267 71.4249 33.7398 70.011 35.7908 70.1898L38.253 68.5376L34.3837 68.4021C34.1673 68.8626 33.9454 69.0955 33.4962 69.3339C31.9431 70.9645 29.2103 70.8019 27.8086 69.2417C26.1796 67.687 26.3419 64.9513 27.9004 63.5483C29.4589 62.1453 31.959 62.0857 33.3553 63.4183L37.4519 63.5484L34.8921 61.1052C34.4429 61.3436 34.2157 61.349 33.7611 61.3598C31.4882 61.414 29.632 59.8647 29.3505 57.5949C29.2963 55.3196 30.8439 53.4615 33.1113 53.1799C35.3842 53.1257 37.2405 54.675 37.522 56.9448L41.7053 60.7153L41.1694 57.3133C40.7094 57.0966 40.4821 57.102 40.0167 56.6578C38.1659 55.336 37.6517 52.8441 38.972 50.9914C40.2924 49.1387 42.7817 48.6241 44.6325 49.9459C46.4834 51.2677 46.7649 53.5375 45.6718 55.3848L46.7273 61.5062L58.4003 64.6428C60.9167 65.2658 62.3455 67.9636 61.7233 70.4826L60.8846 73.462C66.0255 69.6971 70.2301 64.8163 73.2549 58.1424L64.6831 61.0784C62.2046 62.048 59.4446 60.7479 58.7031 58.2614L54.5681 46.9774L48.1878 46.4464C46.3966 47.6274 44.1184 47.454 42.7113 45.6663C41.3042 43.8787 41.4718 41.3705 43.2576 39.9621C45.0434 38.5536 47.549 38.7216 48.9561 40.5092C49.1942 40.9589 49.4269 41.181 49.6651 41.6306L52.6306 42.0152L48.6745 38.2394C46.6235 38.0607 44.7619 36.2838 44.7131 34.2361C44.6589 31.9609 46.4338 30.0974 48.7067 30.0432C50.9796 29.9891 52.8413 31.766 52.8955 34.0412C52.9063 34.4962 52.9172 34.9513 52.7007 35.4117L55.2605 37.8549L54.7029 33.5428C53.074 31.9881 53.0197 29.7128 54.3455 28.0877C55.6659 26.235 58.3933 26.1701 60.0169 27.4973C61.8677 28.8191 61.9328 31.5493 60.607 33.1745C60.3851 33.4074 59.9414 33.8733 59.7195 34.1062L60.0443 38.1962L61.5758 35.6556C61.0724 33.6187 62.3873 31.5385 64.4166 30.8072C66.6787 30.298 68.7568 31.6144 69.4875 33.6459C69.9962 35.9102 68.6813 37.9904 66.652 38.7217C66.1974 38.7325 65.7483 38.9709 65.2883 38.7542L62.6638 43.1421L65.3483 50.8183L75.7222 47.1563C75.7168 46.9288 75.9333 46.4684 75.9278 46.2409L73.1028 42.2104C70.9867 39.3014 71.0893 34.063 73.059 30.829L80.5103 19.0412C82.7073 15.8018 85.8839 15.4985 88 18.4075L96.7078 30.7208C98.8239 33.6299 98.7212 38.8683 96.7515 42.1023L94.5654 45.7968C96.7519 51.6636 98.1156 51.6311 102.764 55.8457L108.306 49.7948L107.732 44.8002C107.272 44.5835 107.039 44.3614 106.579 44.1447C104.728 42.8229 104.436 40.098 105.762 38.4729C107.082 36.6202 109.804 36.3277 111.428 37.6549C113.051 38.9821 113.565 41.4741 112.24 43.0992L112.537 46.0515L114.502 42.59C114.264 42.1404 114.031 41.9183 114.02 41.4632C113.284 39.2042 114.599 37.1241 116.855 36.3874C119.112 35.6506 121.19 36.967 121.926 39.226C122.657 41.2574 121.347 43.5651 119.545 44.291L117.365 48.213L120.741 46.7667C120.731 46.3117 120.947 45.8512 121.169 45.6183C122.029 43.5489 124.508 42.5792 126.575 43.4406C128.642 44.3019 129.611 46.783 128.751 48.8524C127.89 50.9217 125.639 51.886 123.572 51.0246L118.388 52.9693L121.364 53.809C121.586 53.5761 122.035 53.3378 122.484 53.0994C124.508 52.1406 127.025 52.7635 127.983 54.7896C128.94 56.8156 128.318 59.3346 126.294 60.2934C124.27 61.2523 121.981 60.6239 121.029 58.8253L115.07 56.9184L107.094 65.7592C105.319 67.6227 102.37 67.9206 100.508 66.1438L97.2557 63.2618C96.6067 74.2045 90.281 85.51 80.4376 92.3464L86.8341 93.56C89.3451 93.9554 90.9958 96.4202 90.6008 98.9338L88.6098 110.819L93.6969 114.34C95.737 114.064 97.8206 115.608 98.0967 117.65C98.3782 119.92 97.0632 122 94.7958 122.282C92.5283 122.564 90.4502 121.247 90.1687 118.977C90.1579 118.522 90.147 118.067 90.1362 117.612L87.5927 115.852L89.0811 121.052C90.9265 122.146 91.4406 124.638 90.5748 126.48C89.7036 128.094 87.2197 128.837 85.1471 127.748Z" fill="#003F5A"/>
</g>
</svg>
