<svg width="64" height="70" viewBox="0 0 64 70" fill="none" xmlns="http://www.w3.org/2000/svg">
<g id="Frame 67" opacity="0.15">
<path id="Vector" fill-rule="evenodd" clip-rule="evenodd" d="M80.3079 45.3982C80.1769 42.6236 75.85 42.9309 74.1857 45.7083C71.6218 49.8643 66.7058 46.7765 69.3394 45.799C72.4189 44.6137 75.707 43.8733 76.8353 38.2598C78.4746 29.2805 67.8325 18.4367 62.5567 16.8094C31.1066 10.2443 15.2447 39.2395 11.3717 38.376C8.7666 38.256 5.80979 38.6335 9.65034 43.3485C5.6385 45.2187 8.28452 45.0694 9.68344 48.5874C14.4937 59.6477 24.51 69.1569 28.9316 78.2299C31.9666 84.6131 43.1106 79.4183 37.5279 75.2652C32.9759 72.5081 29.2174 71.7998 30.8363 62.9551C32.68 52.6296 37.0095 31.3872 42.6198 20.8071C43.8792 17.9682 46.7176 20.1896 45.4786 22.8939C43.8062 26.6343 41.1362 34.2175 38.9447 42.2865C36.9167 49.2785 35.2897 59.086 33.7811 66.2946C33.1147 69.7745 35.9982 73.5178 37.5642 68.6594L39.0154 59.1007C39.976 52.7731 46.6773 29.5494 50.2554 24.17C50.9792 23.0403 51.3799 21.3106 52.8972 22.2296C53.6457 22.7564 54.0016 24.0501 53.5477 25.2208C51.5564 30.1523 49.9291 35.4146 48.4367 40.6974C45.5542 50.5898 42.6308 60.7515 41.1592 70.4448C40.4273 72.5375 43.6378 74.1267 45.1876 71.1941C46.6634 63.2919 48.8059 56.455 50.6457 48.8835C51.9622 43.8496 53.2174 39.2194 55.0943 34.1328C56.0838 31.2528 57.4168 28.8383 58.0712 29.0754C58.746 29.1778 59.2041 29.7983 59.2164 30.6266C59.2329 33.246 57.761 38.3942 56.281 44.5052C54.7396 51.0202 50.3524 65.367 48.5493 70.8781C47.5393 73.8926 49.8665 74.9346 51.9441 75.8009C56.3897 77.44 67.8945 84.4204 69.6113 73.1115C69.7748 72.0344 66.9643 59.6249 67.2015 58.9723C67.2219 58.8377 67.4305 59.2825 67.9009 60.7313C71.1325 71.2764 76.8087 66.6288 77.3034 65.1888C79.6422 57.9686 80.7787 51.3922 80.3079 45.3982ZM19.1424 41.7594C17.6374 41.6687 18.1075 38.5722 18.4101 39.3068C19.036 40.6414 19.8947 39.5322 18.8436 38.2707C17.3139 36.5234 22.7 36.5147 22.2299 39.6112C22.046 40.8229 21.0646 42.7399 19.1424 41.7594ZM61.27 38.9269C62.5992 39.2664 62.898 42.7551 62.5178 44.3502C61.4712 49.4251 59.6317 61.5419 56.1353 66.3827C54.2215 68.9845 52.4998 69.4118 52.4547 67.8899C52.4424 67.0616 53.4115 64.3163 54.5155 61.5915C56.609 55.9868 58.3875 48.8193 59.8266 42.9775C60.7425 39.6732 60.2108 38.6283 61.27 38.9269ZM35.7329 22.5162C37.3034 23.9943 35.7208 26.2332 35.0094 28.1912C32.2985 36.0437 29.5675 48.576 28.8278 56.1768C28.3742 61.8927 27.0246 61.6878 26.3865 59.5249C25.3392 55.5094 26.3939 49.4715 27.2443 44.78C28.8631 35.9353 32.3627 19.2499 35.7329 22.5162ZM17.772 37.1439C18.5571 35.6103 23.2276 35.7684 24.1437 37.0094C25.7675 39.0464 24.3364 43.9253 21.535 44.1886C16.6479 44.5486 16.12 40.7497 17.772 37.1439Z" fill="#003F5A"/>
</g>
</svg>
