<svg width="61" height="58" viewBox="0 0 61 58" fill="none" xmlns="http://www.w3.org/2000/svg">
<g id="Frame 718" opacity="0.15">
<path id="Vector" fill-rule="evenodd" clip-rule="evenodd" d="M14.11 13.8411C15.2075 12.6822 16.9762 14.4386 16.6592 16.272C16.2171 19.043 19.5154 19.5421 18.7353 18.1289C17.839 16.458 16.6851 14.9026 18.2989 12.0353C20.9524 7.51108 29.6523 6.78061 32.5597 8.05053C48.7148 16.986 44.7476 35.5586 46.7577 36.635C47.937 37.5597 49.0828 38.8329 45.6425 39.4456C46.6879 41.7643 45.5918 40.707 43.6635 41.7141C37.4215 44.7258 29.4945 45.1099 24.1669 47.4021C20.4517 49.0432 17.5478 42.6024 21.5359 42.8877C24.5517 43.3943 26.4538 44.4953 29.0657 40.0373C32.1351 34.8503 38.216 23.9779 39.7409 17.2675C40.2572 15.5592 38.1883 15.462 37.7136 17.104C37.0391 19.3597 35.3579 23.6627 33.2862 27.9977C31.5471 31.8025 28.5776 36.6827 26.5312 40.387C25.5164 42.152 22.8572 42.7005 23.9972 39.998L26.95 35.292C28.9046 32.1767 34.6959 19.5522 35.1553 15.8683C35.2638 15.105 35.738 14.2017 34.7327 14.0328C34.2093 13.9815 33.5692 14.4113 33.3278 15.0912C32.3455 17.9851 31.0806 20.8865 29.7493 23.7462C27.2947 29.1343 24.7568 34.6549 21.7625 39.4272C21.2964 40.6128 19.3026 40.1008 19.7276 38.2428C22.0484 34.2487 23.6794 30.4686 25.7177 26.4821C27.0323 23.7966 28.2221 21.31 29.3124 18.3914C29.9616 16.7665 30.2867 15.2153 29.9128 15.0731C29.5806 14.8647 29.1485 14.963 28.8325 15.319C27.843 16.4533 26.5533 19.2468 24.906 22.4625C23.134 25.8771 19.664 33.7689 18.3824 36.8445C17.6917 38.5358 16.2877 38.1167 15.0583 37.7148C12.5081 36.7613 4.88125 35.4862 8.37464 29.9186C8.70734 29.3883 14.5846 25.0393 14.7261 24.6662C14.7677 24.5999 14.51 24.7154 13.7619 25.1697C8.40045 28.5491 7.67197 24.397 7.99655 23.5845C9.68589 19.5638 11.6572 16.2743 14.11 13.8411ZM42.1056 35.1941C42.7949 35.719 43.7514 34.1945 43.3442 34.4009C42.5712 34.7473 42.6133 33.9423 43.544 33.7872C44.8652 33.6001 42.5234 31.5765 41.5669 33.101C41.1926 33.6975 40.901 34.9002 42.1056 35.1941ZM24.8257 18.1628C24.1197 17.8122 22.6813 19.2191 22.2487 20.0562C20.8013 22.6583 17.0583 28.6237 16.7653 32.0425C16.6229 33.893 17.2122 34.7247 17.8026 34.0789C18.1186 33.7229 18.7262 32.1642 19.2673 30.5639C20.4576 27.3385 22.3711 23.5509 23.9352 20.4677C24.7755 18.6856 25.3989 18.4301 24.8257 18.1628ZM42.0985 20.5943C40.8604 20.6488 40.7098 22.2171 40.2854 23.3364C38.521 27.7719 35.0104 34.2526 32.4821 37.8393C30.5361 40.4981 31.2005 40.9149 32.2895 40.2125C34.2513 38.8569 36.0563 35.8326 37.4454 33.471C40.0573 29.013 44.7907 20.436 42.0985 20.5943ZM44.4331 33.6985C44.6664 32.7363 42.5736 31.0537 41.7094 31.2505C40.2385 31.5285 39.032 34.1893 40.1529 35.3546C42.1458 37.344 43.8002 35.8879 44.4331 33.6985Z" fill="#003F5A"/>
</g>
</svg>
