<svg width="36" height="36" viewBox="0 0 36 36" fill="none" xmlns="http://www.w3.org/2000/svg">
<g id="icons8:iphone" opacity="0.6">
<path id="Vector" d="M11.3304 3.85693C9.34761 3.85693 7.71436 5.4539 7.71436 7.39265V28.6069C7.71436 30.5457 9.34761 32.1426 11.3304 32.1426H23.384C25.3668 32.1426 27.0001 30.5457 27.0001 28.6069V7.39265C27.0001 5.4539 25.3668 3.85693 23.384 3.85693H11.3304ZM11.3304 6.21408H23.384C24.053 6.21408 24.5894 6.73854 24.5894 7.39265V28.6069C24.5894 29.261 24.053 29.7855 23.384 29.7855H11.3304C10.6615 29.7855 10.1251 29.261 10.1251 28.6069V7.39265C10.1251 6.73854 10.6615 6.21408 11.3304 6.21408ZM17.3572 26.2498C17.0375 26.2498 16.7309 26.374 16.5049 26.595C16.2788 26.816 16.1519 27.1158 16.1519 27.4284C16.1519 27.7409 16.2788 28.0407 16.5049 28.2617C16.7309 28.4828 17.0375 28.6069 17.3572 28.6069C17.6769 28.6069 17.9835 28.4828 18.2095 28.2617C18.4356 28.0407 18.5626 27.7409 18.5626 27.4284C18.5626 27.1158 18.4356 26.816 18.2095 26.595C17.9835 26.374 17.6769 26.2498 17.3572 26.2498Z" fill="#003F5A"/>
</g>
</svg>
