<svg width="213" height="172" viewBox="0 0 213 172" fill="none" xmlns="http://www.w3.org/2000/svg">
<path d="M4.98062 89.1648C11.864 74.7931 24.2137 65.077 39.3976 61.8383C41.2197 32.4875 51.9498 10.4239 62.4773 3.3392C69.7657 -1.51885 74.827 1.51743 79.0785 5.36339C69.3608 13.2577 53.9743 47.6689 53.367 60.6237C55.5939 60.6237 57.416 60.8262 58.6307 60.8262C74.422 5.36338 103.17 -4.55519 108.434 8.60204C116.33 28.2367 76.0417 65.2794 75.8392 65.4818C80.9005 84.914 77.6613 99.893 75.4343 105.763C78.4711 104.751 97.2992 95.035 120.986 98.4761C138.397 101.108 163.097 111.836 182.33 148.271C185.164 153.736 186.379 158.999 188.606 166.084C191.44 160.821 197.514 146.449 212.698 139.567C213.305 157.582 209.458 172.359 202.17 179.849C196.096 186.124 190.63 184.099 188.606 184.504C187.998 189.16 186.784 201.71 180.103 212.843C175.041 221.142 168.158 225.798 160.87 225.798C160.465 225.798 160.262 225.798 160.06 225.798C157.428 225.798 146.495 225.798 108.637 225.798C106.005 223.773 101.146 219.118 101.956 216.486C102.158 215.879 103.98 211.021 125.845 209.604C127.87 209.402 129.489 207.782 129.692 205.758C129.692 203.734 128.275 201.912 126.25 201.507C112.686 199.281 103.778 193.411 101.348 184.909C99.3238 178.027 101.956 170.132 108.029 164.87C109.649 163.453 109.851 160.821 108.434 159.202C107.017 157.582 104.385 157.38 102.765 158.797C94.4649 166.084 90.8207 177.217 93.6551 187.136C95.0722 191.791 98.514 198.876 108.029 204.139C99.7287 206.365 95.0723 210.009 94.06 215.069C93.2502 219.118 94.8699 222.964 97.2993 226H64.9068C53.5694 218.511 63.4896 213.652 80.9005 211.223L85.5569 195.637C38.7903 185.314 37.1707 134.912 36.7658 132.482C35.7535 131.875 29.0726 127.22 23.4039 127.827C22.5941 128.029 10.8518 131.47 4.17088 122.969C-1.29535 115.682 -1.09297 101.715 4.98062 89.1648ZM37.1707 93.0108C41.0173 93.0108 44.2566 89.7721 44.2566 85.9261C44.2566 82.0802 41.0173 78.8415 37.1707 78.8415C33.3241 78.8415 30.0849 82.0802 30.0849 85.9261C30.0849 89.7721 33.3241 93.0108 37.1707 93.0108Z" fill="#003F5A"/>
</svg>
