<svg width="218" height="162" viewBox="0 0 218 162" fill="none" xmlns="http://www.w3.org/2000/svg">
<path fill-rule="evenodd" clip-rule="evenodd" d="M84.5511 204.579C88.2981 202.495 89.1308 197.911 87.0491 194.577C86.6328 193.744 86.2164 193.327 85.3837 192.91L87.0491 186.659L90.3797 193.743C89.1307 197.494 91.2124 201.662 94.9593 202.912C98.7063 204.162 103.286 202.079 104.535 198.328C105.784 194.577 103.702 189.993 99.9552 188.742C99.1225 188.326 98.29 188.326 97.4573 188.326L94.1266 181.658L99.1226 184.158C100.372 187.909 104.535 189.993 108.282 188.742C112.445 187.492 114.527 183.325 113.278 179.574C112.029 175.406 107.865 173.322 104.118 174.573C103.286 174.989 102.453 174.989 102.037 175.406L93.7103 170.822L90.7961 156.235C120.355 141.232 194.046 144.983 196.96 192.91C197.792 205.413 191.964 216.665 184.47 225C204.87 219.582 217.36 200.828 217.36 178.74C217.36 122.061 154.911 140.399 143.67 102.474L158.241 98.3063L166.152 103.307C166.152 104.141 166.152 104.974 166.152 105.808C166.984 109.976 171.147 112.476 174.894 111.643C179.058 110.809 181.556 106.641 180.723 102.891C179.89 99.1399 176.143 96.6393 172.396 97.056L167.817 94.1388L174.894 93.722C175.311 94.5555 175.727 94.9723 176.56 95.389C179.474 98.3063 184.47 97.8895 186.968 94.9723C189.882 92.055 189.466 87.0539 186.552 84.5533C183.637 82.0528 179.058 82.0528 176.56 84.5533L169.066 84.9701L173.645 80.3858C174.478 80.8025 174.894 80.8026 175.727 80.8026C179.89 80.8026 183.221 77.8853 183.637 73.7177C183.637 69.5502 180.723 66.2161 176.56 65.7993C172.396 65.7993 169.066 68.7166 168.649 72.8842L161.156 79.9691L161.988 73.7177C162.821 73.301 163.237 73.3009 164.07 72.4674C167.401 69.9669 168.233 65.3826 165.735 62.0485C163.237 58.7145 158.658 57.8809 155.327 60.3815C151.996 62.882 151.58 67.0496 153.662 70.3837L151.996 81.6361L130.764 87.8874C126.184 89.1377 123.686 94.1388 124.935 98.7231L126.6 104.141C117.025 97.4728 109.115 88.7209 103.286 76.635L119.106 81.6361C123.686 83.3031 128.682 80.8025 129.931 76.2182L137.009 55.3804L148.666 54.1301C151.996 56.2139 156.16 55.7972 158.658 52.4631C161.156 49.1291 160.739 44.5447 157.409 42.0442C154.078 39.5437 149.498 39.9604 147 43.2945C146.584 44.128 146.168 44.5448 145.751 45.3783L140.339 46.2118L147.417 39.1269C151.164 38.7102 154.494 35.3761 154.494 31.6253C154.494 27.4577 151.164 24.1237 147 24.1237C142.837 24.1237 139.506 27.4577 139.506 31.6253C139.506 32.4588 139.506 33.2924 139.923 34.1259L135.343 38.7101L136.176 30.7918C139.09 27.8745 139.09 23.7069 136.592 20.7896C134.094 17.4556 129.098 17.4556 126.184 19.9561C122.853 22.4566 122.853 27.4577 125.351 30.375C125.768 30.7918 126.6 31.6253 127.017 32.0421L126.6 39.5436L123.686 34.9594C124.519 31.2086 122.021 27.4577 118.274 26.2075C114.11 25.3739 110.363 27.8745 109.114 31.6253C108.282 35.7929 110.78 39.5437 114.527 40.7939C115.359 40.7939 116.192 41.2107 117.025 40.7939L122.021 48.7123L117.441 62.882L98.2899 56.6307C98.2899 56.2139 97.8736 55.3804 97.8736 54.9637L102.87 47.4621C106.617 42.0442 106.2 32.4588 102.453 26.6242L88.2981 5.36964C84.1348 -0.464952 78.3062 -0.881695 74.5593 4.53614L59.1551 27.4577C55.4081 32.8756 55.8245 42.461 59.5714 48.2956L63.7347 54.9637C59.9877 65.7993 57.4898 65.7993 49.1632 73.7177L38.755 62.882L39.5876 53.7134C40.4202 53.2966 40.8366 52.8799 41.6692 52.4631C44.9998 49.9626 45.4162 44.9615 42.9183 42.0442C40.4203 38.7102 35.4244 38.2934 32.5101 40.7939C29.5958 43.2945 28.763 47.8788 31.261 50.7961L30.8448 56.2139L27.0977 49.9626C27.514 49.129 27.9304 48.7123 27.9304 47.8788C29.1794 43.7112 26.6815 39.9604 22.5182 38.7101C18.3549 37.4599 14.6079 39.9604 13.3589 44.128C12.1099 47.8788 14.6079 52.0463 17.9386 53.2966L22.1018 60.3815L15.8569 57.881C15.8569 57.0475 15.4405 56.2139 15.0242 55.7972C13.3589 52.0464 8.77931 50.3793 5.03235 52.0463C1.2854 53.7134 -0.379892 58.2977 1.28542 62.0485C2.95074 65.7993 7.11397 67.4663 10.8609 65.7993L20.4366 69.1334L15.0242 70.8004C14.6079 70.3836 13.7752 69.9669 12.9426 69.5502C9.19561 67.8831 4.61602 69.1333 2.95071 72.8842C1.2854 76.635 2.53433 81.2193 6.28129 82.8863C10.0282 84.5534 14.1916 83.3031 15.8569 79.9691L26.6815 76.2182L41.6692 92.055C44.9998 95.389 50.4122 95.8058 53.7428 92.4718L59.5714 87.0539C61.2367 107.058 73.3102 127.479 91.6286 139.565L79.9715 142.066C75.3919 142.899 72.4775 147.484 73.3102 152.068L77.4735 173.739L68.3143 180.407C64.5674 179.991 60.8203 182.908 60.404 186.659C59.9877 190.826 62.4856 194.577 66.6489 194.994C70.8122 195.411 74.5592 192.91 74.9755 188.742C74.9755 187.909 74.9755 187.075 74.9755 186.242L79.5551 182.908L77.0571 192.493C73.7265 194.577 72.894 199.161 74.5593 202.495C76.2246 205.413 80.8042 206.663 84.5511 204.579Z" fill="#003F5A"/>
</svg>
