<svg width="173" height="156" viewBox="0 0 173 156" fill="none" xmlns="http://www.w3.org/2000/svg">
<path fill-rule="evenodd" clip-rule="evenodd" d="M170.144 60.7138C168.868 54.3464 158.974 56.575 156.102 63.5791C151.634 74.0852 139.187 68.673 144.932 65.4893C151.634 61.6689 158.974 58.8035 159.612 45.432C160.251 24.1013 131.846 2.77066 119.08 0.860447C44.0801 -3.27834 17.5906 69.3097 8.33528 68.673C2.27144 69.3097 -4.43071 71.2199 6.10124 80.7709C-2.51581 86.5016 3.54805 85.2281 8.01614 92.8689C23.0162 116.747 49.5057 135.212 62.91 154.632C72.1653 168.322 96.1016 152.404 81.7398 144.763C70.2504 139.987 61.3142 139.669 61.9525 118.657C62.5908 94.1424 65.144 43.5218 74.3994 17.0973C76.3143 10.0931 83.6547 14.232 81.7398 20.9177C79.1866 30.1504 75.676 48.6157 73.4419 68.0362C71.2079 84.9097 70.8887 108.151 69.9313 125.342C69.6121 133.62 77.5909 141.261 79.5058 129.481V106.877C79.5058 91.9138 86.8462 35.881 93.2292 22.1912C94.5058 19.3259 94.825 15.187 98.6548 16.7789C100.57 17.734 101.846 20.5993 101.208 23.4646C98.3356 35.5626 96.4207 48.2973 94.825 61.0321C91.6335 84.9097 88.442 109.424 88.442 132.347C87.4845 137.441 95.4633 139.987 98.0165 132.665C98.6548 113.881 101.208 97.3261 102.804 79.1791C104.08 67.0811 105.357 55.9382 107.91 43.5218C109.187 36.5177 111.421 30.4687 113.017 30.7871C114.612 30.7871 115.889 32.0605 116.208 33.9707C117.165 40.0197 115.57 52.4362 114.293 67.0811C113.017 82.6812 107.91 117.383 105.676 130.755C104.399 138.077 110.144 139.669 115.251 140.943C126.102 143.171 155.144 155.269 155.144 128.526C155.144 125.979 144.293 98.2812 144.612 96.6893C144.612 96.371 145.251 97.3261 146.846 100.51C158.017 123.751 169.506 111.016 170.144 107.514C173.017 90.0036 173.336 74.4036 170.144 60.7138ZM27.4843 73.7668C23.9736 74.0852 23.9736 66.7627 24.9311 68.3546C26.846 71.2199 28.4418 68.3545 25.5694 65.8076C21.4205 62.3055 33.8673 60.3953 33.8673 67.7178C33.8673 70.5831 32.2715 75.3586 27.4843 73.7668ZM123.868 52.4362C127.059 52.7545 128.974 60.7137 128.655 64.5341C128.017 76.6321 128.017 105.285 121.634 117.702C118.123 124.387 114.293 125.979 113.655 122.477C113.336 120.567 114.612 113.881 116.208 107.195C119.08 93.5056 120.676 76.3138 121.953 62.3056C122.91 54.3464 121.314 52.1178 123.868 52.4362ZM59.0802 23.4646C63.2291 26.3299 60.3568 32.0606 59.3993 36.8361C55.8887 55.9382 53.9737 85.8649 54.9312 103.693C55.8886 117.065 52.6971 117.065 50.4631 112.289C46.6333 103.375 46.9524 89.0485 47.2716 77.9056C47.9099 56.8933 50.144 17.0973 59.0802 23.4646ZM22.6971 63.5791C23.9736 59.7586 34.8248 58.4851 37.3779 61.0321C41.8461 65.1708 40.2503 76.9505 33.8673 78.5423C22.6971 81.0893 20.1438 72.4934 22.6971 63.5791Z" fill="#003F5A"/>
</svg>
