<svg width="219" height="145" viewBox="0 0 219 145" fill="none" xmlns="http://www.w3.org/2000/svg">
<path d="M219 23.9205L205.152 21.013C202.778 6.66908 192.49 0.660156 178.049 0.660156C150.352 0.660156 137.691 40.9781 136.504 42.9165C115.534 56.8727 82.1296 85.1534 65.9074 118.493L28.2899 144.293L34.6206 147.2C45.6992 141.579 102.279 113.473 116.721 106.301C124.832 102.23 129.778 100.486 136.306 92.5386C137.098 91.5694 137.493 90.9879 137.493 90.9879C137.493 90.9879 137.295 91.5694 136.9 92.9263C133.339 102.618 124.832 106.301 118.501 109.79C104.257 117.543 25.7182 159.606 6.13286 169.879L0 185.968L37.5881 163.677C37.5881 163.677 76.5609 158.055 76.7588 158.055C97.5311 159.024 79.7263 159.412 105.247 158.831C136.504 158.055 159.848 148.17 175.081 128.98C195.854 102.812 195.062 67.9214 196.249 59.5864C202.184 45.824 204.36 42.3349 205.152 33.0308V32.4493L219 23.9205ZM186.753 26.6342C183.39 26.6342 180.818 24.1143 180.818 20.8191C180.818 17.5239 183.39 15.004 186.753 15.004C190.117 15.004 192.688 17.5239 192.688 20.8191C192.688 23.9205 189.919 26.6342 186.753 26.6342Z" fill="#003F5A"/>
</svg>
