<svg width="205" height="166" viewBox="0 0 205 166" fill="none" xmlns="http://www.w3.org/2000/svg">
<path d="M197.859 68.6109V64.9222H204.871C204.133 60.8645 201.365 60.1268 194.169 58.098C189.371 56.8069 183.835 55.147 175.531 52.0115H167.596L164.459 48.6916L170.918 46.4784C168.334 43.3429 163.537 38.5475 155.971 34.3055L155.602 34.121C153.203 18.4438 155.602 30.0634 149.697 4.05763L141.577 10.1441L147.667 29.5101C145.083 28.0346 143.976 27.1124 143.054 26.5591L142.685 25.268C137.518 6.45533 136.595 6.63977 125.892 0C122.94 15.4928 120.91 25.0836 119.434 30.9856C116.666 43.3429 117.773 41.4986 117.588 43.5274C116.85 44.634 116.666 45.3718 112.422 52.0115C107.07 60.8645 101.903 69.1643 97.8437 80.415L97.6592 80.9683C88.4326 109.372 73.3012 127.262 60.1995 142.939C37.3178 170.052 22.3708 190.156 38.9785 243.089C19.7874 233.867 -2.35629 223.354 14.6205 154.559C0.0426056 179.458 -13.9817 232.761 32.1509 252.311C37.6868 254.709 43.5918 255.816 49.4967 255.816H103.749V248.069C103.749 244.38 100.981 241.245 97.2901 240.692L93.0459 240.138C105.594 234.421 115.005 221.51 115.005 206.202C115.005 200.115 113.529 193.844 110.576 188.496C109.654 186.651 110.207 184.438 112.053 183.516C113.898 182.594 116.112 183.147 117.035 184.991C119.803 190.156 121.464 195.689 122.202 201.591C122.755 206.386 123.493 211.55 124.416 216.346L132.166 256H156.893V253.418C156.893 249.914 154.494 246.778 150.988 246.225L142.869 244.565L141.208 202.697C177.376 137.037 151.542 115.089 151.357 114.167C151.357 113.983 150.435 105.867 151.542 91.6657C139.732 82.6282 137.333 83.7349 133.458 82.0749C152.096 83.1816 158.37 91.2968 173.317 91.2968C175.162 91.2968 177.007 91.2968 179.222 91.1124C186.787 90.7435 191.032 88.5303 193.615 83.5504L193.984 82.9971C195.276 81.706 196.937 80.7839 203.949 71.0086L197.859 68.6109Z" fill="#003F5A"/>
</svg>
