<svg width="36" height="36" viewBox="0 0 36 36" fill="none" xmlns="http://www.w3.org/2000/svg">
<g id="ph:monitor" opacity="0.6">
<path id="Vector" d="M29.8682 5.14307H6.13197C5.18889 5.14694 4.28554 5.5207 3.61868 6.18294C2.95181 6.84517 2.57544 7.74225 2.57153 8.67878V25.1788C2.57153 26.1165 2.94665 27.0158 3.61436 27.6789C4.28207 28.342 5.18769 28.7145 6.13197 28.7145H29.8682C30.8125 28.7145 31.7181 28.342 32.3858 27.6789C33.0536 27.0158 33.4287 26.1165 33.4287 25.1788V8.67878C33.4248 7.74225 33.0484 6.84517 32.3815 6.18294C31.7147 5.5207 30.8113 5.14694 29.8682 5.14307ZM31.055 25.1788C31.055 25.4914 30.93 25.7911 30.7074 26.0122C30.4849 26.2332 30.183 26.3574 29.8682 26.3574H6.13197C5.81721 26.3574 5.51534 26.2332 5.29277 26.0122C5.0702 25.7911 4.94516 25.4914 4.94516 25.1788V8.67878C4.94516 8.3662 5.0702 8.06643 5.29277 7.8454C5.51534 7.62438 5.81721 7.50021 6.13197 7.50021H29.8682C30.183 7.50021 30.4849 7.62438 30.7074 7.8454C30.93 8.06643 31.055 8.3662 31.055 8.67878V25.1788ZM23.9342 32.2502C23.9342 32.5628 23.8091 32.8626 23.5866 33.0836C23.364 33.3046 23.0621 33.4288 22.7474 33.4288H13.2529C12.9381 33.4288 12.6362 33.3046 12.4136 33.0836C12.1911 32.8626 12.066 32.5628 12.066 32.2502C12.066 31.9376 12.1911 31.6379 12.4136 31.4168C12.6362 31.1958 12.9381 31.0716 13.2529 31.0716H22.7474C23.0621 31.0716 23.364 31.1958 23.5866 31.4168C23.8091 31.6379 23.9342 31.9376 23.9342 32.2502Z" fill="#003F5A"/>
</g>
</svg>
