<svg width="21" height="21" viewBox="0 0 21 21" fill="none" xmlns="http://www.w3.org/2000/svg">
<path d="M18.3478 13.2994C18.2488 13.3694 16.1957 15.5768 16.1957 17.126C16.1957 18.7594 17.2169 19.8025 18.3478 19.8593C19.3228 19.9074 20.5 18.8852 20.5 17.126C20.5 15.4861 18.4468 13.3694 18.3478 13.2994ZM7.14156 19.8593C7.54832 20.2726 8.08851 20.5 8.66313 20.5C9.23776 20.5 9.77795 20.2726 10.1847 19.8593L17.7173 12.2061L16.9565 11.4331L8.66313 3.00697L6.19568 0.5L4.67411 2.04595L7.14156 4.55292L1.13058 10.6602C0.723824 11.0734 0.5 11.6223 0.5 12.2061C0.5 12.7899 0.723824 13.3388 1.13058 13.7521L7.14156 19.8593ZM8.66313 6.09886L14.6741 12.2061H2.65216L8.66313 6.09886Z" fill="white"/>
</svg>
