<svg width="24" height="25" viewBox="0 0 24 25" fill="none" xmlns="http://www.w3.org/2000/svg">
<g opacity="0.6">
<path d="M12 3.5C7.03725 3.5 3 7.53725 3 12.5C3 17.4628 7.03725 21.5 12 21.5C16.9628 21.5 21 17.4628 21 12.5C21 7.53725 16.9628 3.5 12 3.5ZM12 5C16.1512 5 19.5 8.34875 19.5 12.5C19.5 16.6512 16.1512 20 12 20C7.84875 20 4.5 16.6512 4.5 12.5C4.5 8.34875 7.84875 5 12 5ZM12 8C10.35 8 9 9.35 9 11H10.5C10.5 10.1623 11.1622 9.5 12 9.5C12.8378 9.5 13.5 10.1623 13.5 11C13.4998 11.2803 13.4114 11.5534 13.2473 11.7806C13.0832 12.0078 12.8517 12.1777 12.5858 12.266L12.2812 12.359C11.9815 12.46 11.7208 12.6523 11.5359 12.9089C11.351 13.1656 11.251 13.4737 11.25 13.79V14.75H12.75V13.7892L13.0545 13.6955C13.6196 13.5056 14.1111 13.1435 14.46 12.6601C14.8089 12.1767 14.9977 11.5962 15 11C15 9.35 13.65 8 12 8ZM11.25 15.5V17H12.75V15.5H11.25Z" fill="#003F5A"/>
</g>
</svg>
