<svg width="648" height="844" viewBox="0 0 648 844" fill="none" xmlns="http://www.w3.org/2000/svg">
<path d="M186.415 673.329C174.39 670.683 29.926 646.821 40.5589 470.842C51.1918 294.863 64.5397 241.938 120.709 222.577C168.529 206.093 214.247 178.782 263.1 167.879C354.105 147.576 431.733 183.207 516.024 223.623C584.127 256.279 592.363 330.644 605.199 418.715C614.617 483.333 599.559 554.764 570.921 606.683C534.12 673.387 482.177 684.891 424.326 681.459C304.632 674.358 243.595 685.925 186.421 673.329H186.415Z" fill="#F9F9F9"/>
<path d="M456.019 351.44C505.483 351.44 545.582 323.536 545.582 289.116C545.582 254.695 505.483 226.792 456.019 226.792C406.554 226.792 366.455 254.695 366.455 289.116C366.455 323.536 406.554 351.44 456.019 351.44Z" fill="white"/>
<path d="M386.945 382.191C401.226 382.191 412.803 374.134 412.803 364.195C412.803 354.256 401.226 346.199 386.945 346.199C372.664 346.199 361.087 354.256 361.087 364.195C361.087 374.134 372.664 382.191 386.945 382.191Z" fill="white"/>
<path d="M357.092 400.294C363.717 400.294 369.088 396.556 369.088 391.946C369.088 387.335 363.717 383.597 357.092 383.597C350.467 383.597 345.097 387.335 345.097 391.946C345.097 396.556 350.467 400.294 357.092 400.294Z" fill="white"/>
<mask id="mask0_10750_10892" style="mask-type:alpha" maskUnits="userSpaceOnUse" x="366" y="226" width="180" height="126">
<path d="M456.02 351.44C505.484 351.44 545.583 323.536 545.583 289.116C545.583 254.695 505.484 226.792 456.02 226.792C406.555 226.792 366.456 254.695 366.456 289.116C366.456 323.536 406.555 351.44 456.02 351.44Z" fill="white"/>
</mask>
<g mask="url(#mask0_10750_10892)">
<path d="M485.534 280.826L477.344 350.097L586.901 363.038L595.092 293.767L485.534 280.826Z" fill="#F7E080"/>
<path d="M485.628 343.671C483.313 340.938 484.368 336.508 484.885 333.344C485.56 329.192 486.105 325.018 486.632 320.844C487.501 314.015 488.284 307.181 488.976 300.33C489.282 297.284 489.662 294.233 489.782 291.176C489.816 290.337 489.123 281.614 489.118 281.614C491.353 280.497 497.294 282.221 500.029 282.544C503.86 282.998 507.69 283.452 511.514 283.9C521.626 285.096 531.738 286.287 541.855 287.484C558.781 289.486 575.708 291.482 592.634 293.484C593.463 293.581 594.286 293.677 595.114 293.779C595.114 293.779 594.195 301.566 594.144 301.997L590.552 332.391C589.967 337.308 589.389 342.231 588.804 347.148C588.345 351.016 587.227 355.088 586.943 358.865C576.502 359.302 565.647 356.852 555.422 355.088C544.545 353.216 533.633 351.526 522.681 350.148C512.019 348.81 500.625 348.929 490.23 346.11C488.749 345.707 487.274 345.152 486.116 344.148C485.946 344 485.787 343.836 485.639 343.666L485.628 343.671Z" fill="#FFEEA7"/>
<path d="M485.554 280.831L595.114 293.774L537.133 332.419C535.573 333.457 533.502 333.264 532.163 331.96L489.083 289.957L485.554 280.831Z" fill="#F7E080"/>
<path d="M485.554 280.831L595.108 293.779L535.613 330.23L485.554 280.831Z" fill="#FFF8C1"/>
<path d="M484.192 281.058C481.803 301.243 479.42 321.428 477.031 341.618L476.004 350.313C475.97 350.625 476.225 350.715 476.498 350.749C488.851 352.207 501.204 353.67 513.557 355.128C533.23 357.453 552.902 359.778 572.575 362.098C577.069 362.631 581.563 363.158 586.057 363.692C586.545 363.748 588.202 363.533 588.282 362.841C590.665 342.667 593.054 322.5 595.437 302.326C595.778 299.468 596.112 296.615 596.453 293.757C596.555 292.883 593.826 293.405 593.735 294.176C591.352 314.35 588.963 334.518 586.58 354.691C586.239 357.549 585.904 360.402 585.564 363.261C586.307 362.977 587.051 362.693 587.788 362.41C575.435 360.952 563.082 359.489 550.729 358.031C531.056 355.706 511.383 353.381 491.711 351.061C487.216 350.528 482.722 350.001 478.228 349.468C478.393 349.615 478.557 349.757 478.722 349.904C481.111 329.719 483.494 309.535 485.883 289.344C486.223 286.446 486.57 283.548 486.91 280.65C487.012 279.776 484.283 280.298 484.192 281.07V281.058Z" fill="#717171"/>
<path d="M594.246 293.32C576.905 303.943 559.564 314.571 542.224 325.194C539.733 326.719 537.242 328.245 534.751 329.77C535.46 329.742 536.175 329.708 536.884 329.68C522.273 315.263 507.656 300.84 493.044 286.423L486.82 280.281C486.224 280.741 485.628 281.2 485.032 281.665C497.385 283.123 509.738 284.586 522.091 286.043C541.764 288.369 561.437 290.694 581.11 293.014C585.604 293.547 590.098 294.074 594.592 294.607C595.721 294.743 597.469 293.167 595.63 292.946C583.277 291.488 570.924 290.025 558.571 288.567C538.899 286.242 519.226 283.917 499.553 281.597C495.059 281.064 490.565 280.536 486.071 280.003C485.594 279.947 483.529 280.638 484.283 281.387C498.895 295.804 513.512 310.227 528.123 324.643C530.2 326.691 532.271 328.738 534.348 330.786C534.887 331.313 535.931 331.03 536.481 330.695C553.822 320.072 571.163 309.444 588.504 298.821C590.995 297.296 593.486 295.77 595.977 294.244C597.554 293.28 595.194 292.747 594.246 293.326V293.32Z" fill="#717171"/>
</g>
<path d="M274.163 497.662H257.14V679.206H274.163V497.662Z" fill="#EFEFEF"/>
<path d="M255.767 508.863V679.467C255.767 680.232 258.507 679.744 258.507 678.735V508.131C258.507 507.366 255.767 507.853 255.767 508.863Z" fill="#7A7A7B"/>
<path d="M275.53 679.608V507.689C275.53 506.923 272.789 507.411 272.789 508.42V680.34C272.789 681.106 275.53 680.618 275.53 679.608Z" fill="#7A7A7B"/>
<path d="M228.405 504.365L135.295 485.752V445.49C135.295 419.792 156.137 398.955 181.853 398.955C207.563 398.955 228.411 419.787 228.411 445.49V504.365H228.405Z" fill="#EFEFEF"/>
<path d="M229.262 503.696C211.898 500.225 194.535 496.754 177.177 493.283C166.453 491.14 155.722 488.996 144.998 486.852C142.359 486.324 139.653 485.553 136.98 485.247C136.799 485.224 136.441 485.202 136.282 485.105C135.919 484.89 136.634 485.678 136.662 485.219C136.747 483.937 136.662 482.621 136.662 481.339V448.155C136.662 442.785 136.98 437.51 138.489 432.309C140.929 423.893 145.809 416.219 152.431 410.474C166.339 398.417 186.545 396.347 202.728 405.069C217.703 413.14 226.924 428.991 227.032 445.915C227.156 464.869 227.032 483.823 227.032 502.777V504.723C227.032 505.409 229.772 504.944 229.772 503.991V466.713C229.772 452.625 231.406 437.476 224.943 424.46C214.968 404.36 191.76 394.305 170.169 399.8C149.032 405.177 134.058 424.227 133.922 446.012C133.837 459.374 133.922 472.741 133.922 486.109C133.922 486.307 134.319 486.393 134.432 486.415C161.68 491.86 188.928 497.31 216.177 502.755C219.967 503.515 223.757 504.269 227.548 505.029C228.308 505.182 230.743 503.98 229.267 503.685L229.262 503.696Z" fill="#7A7A7B"/>
<path d="M234.31 505.23C234.31 505.23 130.129 486.676 130.049 486.235C123.862 449.296 137.268 418.493 149.361 407.336C156.719 400.544 166.947 397.976 176.616 398.285C207.028 399.246 224.646 418.636 228.153 448.308C229.282 457.888 228.908 490.38 234.31 505.23Z" fill="white"/>
<path d="M230.152 505.505C216.616 503.145 205.48 500.772 191.945 498.392C173.098 495.078 154.234 491.821 135.425 488.3C133.742 487.987 131.912 487.821 130.291 487.289C129.475 487.021 128.68 486.653 128.244 485.83C127.412 484.236 127.525 481.314 127.332 479.486C127.053 476.848 126.858 474.202 126.762 471.546C126.127 454.179 129.413 435.932 137.629 420.262C140.51 414.762 144.081 409.328 148.794 405.336C155.291 399.833 166.547 398.38 174.605 398.01C189.464 397.324 204.626 402.29 215.043 413.085C224.795 423.193 229.772 437.491 230.766 451.956C231.785 466.769 226.044 480.757 228.52 495.368C229.073 498.633 229.778 501.868 230.846 504.97C231.232 506.081 228.604 504.73 228.308 503.878C222.392 478.879 234.084 448.226 220.831 423.67C213.114 409.38 199.197 401.725 183.573 400.421C175.24 399.725 163.557 399.692 155.917 404.018C150.263 407.226 146.006 412.236 142.548 417.837C134.081 431.541 130.096 448.084 129.379 463.945C129.156 468.98 129.257 474.026 129.713 479.008C129.851 480.542 130.018 482.073 130.222 483.597C130.421 485.098 130.763 485.739 129.033 485.098C128.748 484.989 129.212 485.135 129.311 485.154C131.022 485.465 132.716 485.833 134.424 486.15C151.977 489.431 169.578 492.48 187.166 495.575C201.619 498.121 213.938 500.045 228.263 503.2C228.508 503.256 228.757 503.286 229.001 503.329C229.839 503.477 231.777 505.78 230.149 505.496L230.152 505.505Z" fill="#7A7A7B"/>
<path d="M321.169 398.961H182.193C182.137 398.961 182.08 398.961 182.018 398.961C207.648 399.057 228.399 419.849 228.399 445.49V504.365H368.067V445.841C368.067 419.951 347.067 398.961 321.163 398.961H321.169Z" fill="white"/>
<path d="M231.863 505.091H367.528C368.141 505.091 369.446 504.802 369.446 504.002V452.307C369.446 442.705 368.975 433.517 364.583 424.67C357.978 411.365 345.234 401.757 330.622 399.052C325.447 398.093 320.216 398.241 314.984 398.241H225.659C211.564 398.241 197.423 397.912 183.334 398.241C183.079 398.246 182.829 398.241 182.574 398.241C181.632 398.252 179.623 399.664 181.479 399.687C206.752 399.993 225.89 420.972 226.038 446.04C226.123 460.009 226.038 473.978 226.038 487.941L227.038 504.734C227.038 505.046 227.679 505.091 227.861 505.091H234.176C235.135 505.091 237.11 503.645 235.271 503.645H228.956C229.228 503.764 229.506 503.883 229.778 504.002L228.778 462.442C228.778 456.753 228.812 451.071 228.778 445.382C228.716 434.204 224.886 423.405 217.623 414.864C208.635 404.292 196.385 398.411 182.574 398.246C182.211 398.729 181.842 399.211 181.479 399.693C193.015 399.545 204.562 399.693 216.098 399.693H281.88C294.727 399.693 307.579 399.625 320.431 399.693C334.458 399.772 347.742 406.135 356.526 417.093C363.88 426.269 366.705 437.204 366.705 448.768V504.745L368.623 503.657H232.958C231.999 503.657 230.024 505.103 231.863 505.103V505.091Z" fill="#7A7A7B"/>
<path d="M255.53 450.99L307.345 450.99C308.74 450.99 313.328 450.264 313.941 451.603C314.315 452.409 313.941 454.343 313.941 455.234L313.941 459.433C313.941 461.045 314.746 465.006 312.948 465.488C311.899 465.766 310.436 465.488 309.358 465.488C308.553 465.488 306.925 465.811 306.176 465.488C304.622 464.818 306.131 460.631 304.203 459.167C303.233 458.435 302.133 458.582 300.998 458.582L254.883 458.582C253.477 458.582 253.902 461.357 255.105 461.357L300.607 461.357C301.407 461.357 303.108 461.034 303.584 461.8C303.981 462.435 303.499 464.245 303.584 465.028C303.76 466.702 304.69 468.002 306.403 468.268C308.445 468.586 311.201 468.512 313.254 468.268C316.391 467.899 315.903 464.801 315.903 462.418L315.903 455.507C315.903 453.424 316.481 450.269 314.564 448.817C312.733 447.426 308.746 448.232 306.619 448.232L255.315 448.232C253.908 448.232 254.333 451.007 255.536 451.007L255.53 450.99Z" fill="#7A7A7B"/>
<path d="M245.766 464.032C250.08 463.021 252.757 458.706 251.745 454.394C250.733 450.082 246.416 447.406 242.102 448.417C237.787 449.429 235.11 453.744 236.122 458.056C237.134 462.368 241.452 465.044 245.766 464.032Z" fill="#EFEFEF"/>
<path d="M234.528 456.322C234.766 461.37 238.636 465.334 243.816 465.244C248.793 465.159 253.298 461.234 253.349 456.118C253.4 451.048 249.02 447.129 244.06 447.197C238.937 447.271 234.772 451.224 234.528 456.322C234.46 457.746 237.246 457.36 237.302 456.118C237.478 452.375 240.151 448.881 244.236 449.239C247.805 449.551 250.529 452.817 250.569 456.328C250.609 460.088 247.55 463.548 243.635 463.208C239.969 462.89 237.467 459.635 237.302 456.118C237.234 454.683 234.465 455.103 234.528 456.322Z" fill="#7A7A7B"/>
</svg>
