<svg width="648" height="600" viewBox="0 0 648 600" fill="none" xmlns="http://www.w3.org/2000/svg">
<path d="M186.415 551.329C174.39 548.683 29.926 524.821 40.5589 348.842C51.1918 172.863 64.5397 119.938 120.709 100.577C168.529 84.0931 214.247 56.7816 263.1 45.8789C354.105 25.5758 431.733 61.2073 516.024 101.623C584.127 134.279 592.363 208.644 605.199 296.715C614.617 361.333 599.559 432.764 570.921 484.683C534.12 551.387 482.177 562.891 424.326 559.459C304.632 552.358 243.595 563.925 186.421 551.329H186.415Z" fill="#F9F9F9"/>
<path d="M456.019 229.44C505.483 229.44 545.582 201.536 545.582 167.116C545.582 132.695 505.483 104.792 456.019 104.792C406.554 104.792 366.455 132.695 366.455 167.116C366.455 201.536 406.554 229.44 456.019 229.44Z" fill="white"/>
<path d="M386.945 260.191C401.226 260.191 412.803 252.134 412.803 242.195C412.803 232.256 401.226 224.199 386.945 224.199C372.664 224.199 361.087 232.256 361.087 242.195C361.087 252.134 372.664 260.191 386.945 260.191Z" fill="white"/>
<path d="M357.092 278.294C363.717 278.294 369.088 274.556 369.088 269.946C369.088 265.335 363.717 261.597 357.092 261.597C350.467 261.597 345.097 265.335 345.097 269.946C345.097 274.556 350.467 278.294 357.092 278.294Z" fill="white"/>
<path d="M406.531 124.784L398.34 194.055L507.898 206.997L516.088 137.725L406.531 124.784Z" fill="#F7E080"/>
<path d="M406.624 187.63C404.309 184.896 405.364 180.467 405.881 177.302C406.556 173.15 407.101 168.976 407.628 164.802C408.497 157.974 409.28 151.139 409.972 144.288C410.278 141.243 410.659 138.191 410.778 135.135C410.812 134.295 410.12 125.572 410.114 125.572C412.35 124.455 418.291 126.179 421.026 126.503C424.856 126.956 428.686 127.41 432.51 127.858C442.622 129.055 452.734 130.246 462.851 131.442C479.777 133.444 496.704 135.441 513.63 137.443C514.459 137.539 515.282 137.636 516.11 137.738C516.11 137.738 515.191 145.525 515.14 145.956L511.548 176.349C510.964 181.266 510.385 186.189 509.8 191.106C509.341 194.974 508.223 199.046 507.939 202.824C497.498 203.26 486.643 200.81 476.418 199.046C465.541 197.175 454.629 195.485 443.677 194.107C433.015 192.768 421.621 192.887 411.226 190.068C409.745 189.666 408.27 189.11 407.112 188.106C406.942 187.959 406.783 187.794 406.635 187.624L406.624 187.63Z" fill="#FFEEA7"/>
<path d="M406.55 124.79L516.11 137.732L458.129 176.378C456.569 177.415 454.498 177.223 453.159 175.918L410.079 133.915L406.55 124.79Z" fill="#F7E080"/>
<path d="M406.55 124.79L516.104 137.738L456.609 174.188L406.55 124.79Z" fill="#FFF8C1"/>
<path d="M405.188 125.017C402.799 145.201 400.416 165.386 398.027 185.577L397 194.271C396.966 194.583 397.221 194.674 397.494 194.708C409.847 196.165 422.2 197.629 434.553 199.086C454.226 201.411 473.899 203.737 493.571 206.056C498.065 206.59 502.56 207.117 507.054 207.65C507.542 207.707 509.198 207.491 509.278 206.799C511.661 186.626 514.05 166.458 516.433 146.285C516.774 143.426 517.108 140.574 517.449 137.715C517.551 136.842 514.822 137.363 514.731 138.135C512.348 158.308 509.959 178.476 507.576 198.649C507.235 201.508 506.9 204.361 506.56 207.219C507.303 206.935 508.047 206.652 508.784 206.368C496.431 204.911 484.078 203.448 471.725 201.99C452.052 199.665 432.38 197.339 412.707 195.02C408.213 194.487 403.719 193.959 399.224 193.426C399.389 193.573 399.554 193.715 399.718 193.863C402.107 173.678 404.49 153.493 406.879 133.303C407.22 130.405 407.566 127.506 407.906 124.608C408.008 123.735 405.279 124.257 405.188 125.028V125.017Z" fill="#717171"/>
<path d="M515.242 137.278C497.901 147.901 480.561 158.529 463.22 169.152C460.729 170.678 458.238 172.203 455.747 173.729C456.456 173.701 457.171 173.667 457.88 173.638C443.269 159.221 428.652 144.799 414.041 130.382L407.816 124.24C407.22 124.699 406.624 125.158 406.028 125.623C418.381 127.081 430.734 128.544 443.087 130.002C462.76 132.327 482.433 134.652 502.106 136.972C506.6 137.505 511.094 138.033 515.588 138.566C516.717 138.702 518.465 137.125 516.627 136.904C504.274 135.446 491.921 133.983 479.568 132.526C459.895 130.2 440.222 127.875 420.549 125.555C416.055 125.022 411.561 124.495 407.067 123.962C406.59 123.905 404.525 124.597 405.279 125.346C419.891 139.762 434.508 154.185 449.119 168.602C451.196 170.649 453.267 172.697 455.344 174.744C455.883 175.272 456.927 174.988 457.477 174.653C474.818 164.031 492.159 153.402 509.5 142.78C511.991 141.254 514.482 139.728 516.973 138.203C518.55 137.239 516.19 136.706 515.242 137.284V137.278Z" fill="#717171"/>
<path d="M274.162 375.662H257.139V557.206H274.162V375.662Z" fill="#EFEFEF"/>
<path d="M255.766 386.863V557.467C255.766 558.232 258.506 557.745 258.506 556.735V386.131C258.506 385.366 255.766 385.854 255.766 386.863Z" fill="#7A7A7B"/>
<path d="M275.53 557.608V385.689C275.53 384.923 272.789 385.411 272.789 386.421V558.34C272.789 559.106 275.53 558.618 275.53 557.608Z" fill="#7A7A7B"/>
<path d="M228.405 382.366L135.295 363.752V323.49C135.295 297.792 156.137 276.955 181.853 276.955C207.563 276.955 228.411 297.787 228.411 323.49V382.366H228.405Z" fill="#EFEFEF"/>
<path d="M229.262 381.696C211.898 378.225 194.535 374.754 177.177 371.283C166.453 369.14 155.722 366.996 144.998 364.852C142.359 364.325 139.653 363.553 136.98 363.247C136.799 363.224 136.441 363.202 136.282 363.105C135.919 362.89 136.634 363.678 136.662 363.219C136.747 361.937 136.662 360.621 136.662 359.339V326.156C136.662 320.785 136.98 315.51 138.489 310.309C140.929 301.893 145.809 294.219 152.431 288.474C166.339 276.417 186.545 274.347 202.728 283.069C217.703 291.14 226.924 306.992 227.032 323.915C227.156 342.869 227.032 361.823 227.032 380.778V382.723C227.032 383.409 229.772 382.944 229.772 381.991V344.713C229.772 330.625 231.406 315.476 224.943 302.46C214.968 282.36 191.76 272.305 170.169 277.801C149.032 283.177 134.058 302.228 133.922 324.012C133.837 337.374 133.922 350.741 133.922 364.109C133.922 364.308 134.319 364.393 134.432 364.415C161.68 369.86 188.928 375.31 216.177 380.755C219.967 381.515 223.757 382.269 227.548 383.029C228.308 383.182 230.743 381.98 229.267 381.685L229.262 381.696Z" fill="#7A7A7B"/>
<path d="M228.405 382.366C228.405 382.366 135.505 363.428 135.289 363.752C117.619 390.975 118.317 419.667 124.587 432.394C128.4 440.141 136.032 445.472 144.175 448.348C169.783 457.399 191.005 447.746 203.982 425.406C208.17 418.192 218.877 392.37 228.405 382.366Z" fill="white"/>
<path d="M229.261 381.696C216.993 379.195 204.72 376.705 192.446 374.221C175.355 370.762 158.27 367.251 141.139 363.967C139.607 363.672 138.001 363.213 136.446 363.111C135.663 363.06 134.863 363.094 134.211 363.604C132.957 364.597 132.043 366.945 131.249 368.329C130.102 370.325 129.024 372.355 128.026 374.425C121.494 387.958 117.976 403.452 119.52 418.498C120.059 423.779 121.205 429.229 123.815 433.908C127.413 440.356 133.552 444.962 140.242 447.854C152.578 453.191 167.122 454.155 179.662 448.977C191.402 444.128 200.549 434.424 206.382 423.302C212.357 411.914 217.243 399.947 224.381 389.188C225.976 386.784 227.689 384.453 229.664 382.343C230.373 381.589 227.684 381.81 227.139 382.388C210.621 400.078 207.903 427.323 188.213 442.472C176.751 451.285 162.333 452.851 148.663 448.841C141.372 446.703 134.358 443.135 129.387 437.248C125.71 432.887 123.838 427.55 122.845 422.003C120.411 408.432 122.748 394.06 127.617 381.282C129.166 377.227 130.993 373.268 133.098 369.474C133.745 368.306 134.415 367.149 135.113 366.009C135.799 364.886 136.31 364.489 134.625 364.438C134.347 364.432 134.789 364.466 134.88 364.483C136.435 364.79 137.995 365.045 139.55 365.345C155.535 368.414 171.48 371.68 187.43 374.908C200.538 377.556 213.657 380.783 226.867 382.91C227.094 382.944 227.315 383.001 227.536 383.046C228.297 383.199 230.731 382.003 229.255 381.702L229.261 381.696Z" fill="#7A7A7B"/>
<path d="M321.168 276.961H182.193C182.136 276.961 182.079 276.961 182.017 276.961C207.648 277.058 228.398 297.849 228.398 323.49V382.366H368.066V323.842C368.066 297.951 347.066 276.961 321.162 276.961H321.168Z" fill="white"/>
<path d="M251.862 383.091H367.527C368.14 383.091 369.445 382.802 369.445 382.003V330.307C369.445 320.705 368.974 311.517 364.582 302.67C357.977 289.365 345.233 279.757 330.621 277.052C325.447 276.093 320.215 276.241 314.983 276.241H225.658C211.563 276.241 197.422 275.912 183.333 276.241C183.078 276.247 182.828 276.241 182.573 276.241C181.631 276.252 179.622 277.664 181.478 277.687C206.751 277.993 226.889 298.972 227.037 324.04C227.122 338.009 227.037 351.978 227.037 365.941V382.734C227.037 383.046 227.678 383.091 227.86 383.091H234.175C235.134 383.091 237.109 381.645 235.27 381.645H228.955C229.227 381.764 229.505 381.883 229.777 382.003V340.442C229.777 334.753 229.812 329.071 229.777 323.382C229.715 312.204 225.885 301.405 218.622 292.864C209.634 282.292 196.384 276.411 182.573 276.247C182.21 276.729 181.841 277.211 181.478 277.693C193.014 277.545 204.561 277.693 216.097 277.693H281.879C294.726 277.693 307.578 277.625 320.43 277.693C334.457 277.772 347.741 284.136 356.525 295.093C363.879 304.269 366.705 315.204 366.705 326.768V382.746L368.622 381.657H252.957C251.998 381.657 250.023 383.103 251.862 383.103V383.091Z" fill="#7A7A7B"/>
<path d="M148.407 363.298H218.082C219.087 363.298 220.999 361.784 219.16 361.784H149.486C148.481 361.784 146.569 363.298 148.407 363.298Z" fill="#7A7A7B"/>
<path d="M280.36 345.387C283.004 340.158 288.083 338.449 293.678 336.713C300.776 334.518 309.259 334.181 314.485 339.41C315.178 340.102 317.924 339.665 316.965 338.706C311.319 333.058 302.359 333.242 294.574 334.745C287.487 336.118 280.91 338.406 277.642 344.866C277.114 345.909 279.895 346.312 280.36 345.387Z" fill="#7A7A7B"/>
<path d="M281.987 325.129C281.561 326.207 280.829 327.318 279.865 327.97C278.202 329.099 276.335 328.004 275.206 326.638C274.576 325.878 271.841 326.269 272.726 327.341C276.148 331.475 282.708 330.704 284.705 325.645C285.148 324.522 282.361 324.176 281.987 325.123V325.129Z" fill="#7A7A7B"/>
<path d="M318.535 318.681C318.109 319.758 317.377 320.87 316.413 321.522C314.75 322.651 312.883 321.556 311.754 320.189C311.124 319.435 308.389 319.82 309.274 320.892C312.696 325.027 319.255 324.256 321.253 319.197C321.695 318.074 318.909 317.728 318.535 318.675V318.681Z" fill="#7A7A7B"/>
<path d="M238.629 391.627V336.393C238.629 335.44 239.401 334.668 240.354 334.668H247.26C248.213 334.668 248.985 335.44 248.985 336.393V401.989C248.985 402.942 248.213 403.713 247.26 403.713H233.443C232.489 403.713 231.718 402.942 231.718 401.989V395.087C231.718 394.134 232.489 393.362 233.443 393.362H236.898C237.852 393.362 238.623 392.591 238.623 391.638L238.629 391.627Z" fill="white"/>
<path d="M247.6 344.316V396.13C247.6 397.525 248.327 402.114 246.987 402.726C246.182 403.1 244.247 402.726 243.356 402.726H239.157C237.545 402.726 233.585 403.531 233.102 401.734C232.824 400.684 233.102 399.221 233.102 398.144C233.102 397.338 232.779 395.71 233.102 394.962C233.772 393.408 237.96 394.916 239.424 392.988C240.156 392.018 240.008 390.918 240.008 389.784V343.669C240.008 342.262 237.233 342.688 237.233 343.89V389.392C237.233 390.192 237.557 391.894 236.791 392.37C236.155 392.767 234.345 392.285 233.562 392.37C231.888 392.546 230.589 393.476 230.322 395.189C230.004 397.23 230.078 399.987 230.322 402.04C230.691 405.176 233.789 404.688 236.172 404.688H243.083C245.166 404.688 248.321 405.267 249.773 403.35C251.164 401.518 250.358 397.531 250.358 395.404V344.1C250.358 342.694 247.583 343.119 247.583 344.321L247.6 344.316Z" fill="#7A7A7B"/>
<path d="M245.765 342.032C250.079 341.021 252.756 336.706 251.744 332.394C250.732 328.082 246.415 325.406 242.101 326.417C237.786 327.429 235.109 331.744 236.121 336.056C237.133 340.368 241.451 343.044 245.765 342.032Z" fill="#EFEFEF"/>
<path d="M234.527 334.322C234.765 339.37 238.635 343.334 243.815 343.244C248.792 343.159 253.297 339.234 253.348 334.118C253.399 329.048 249.019 325.129 244.059 325.197C238.936 325.271 234.771 329.224 234.527 334.322C234.459 335.746 237.245 335.36 237.301 334.118C237.477 330.375 240.15 326.881 244.235 327.239C247.805 327.551 250.528 330.817 250.568 334.328C250.608 338.088 247.549 341.548 243.634 341.208C239.968 340.89 237.466 337.635 237.301 334.118C237.233 332.683 234.464 333.103 234.527 334.322Z" fill="#7A7A7B"/>
</svg>
