         <svg xmlns="http://www.w3.org/2000/svg" width="36" height="37" viewBox="0 0 13 22" fill="none">
            <path d="M8.87229 15C8.75832 14.9996 8.64564 14.9759 8.54125 14.9302C8.43687 14.8844 8.34301 14.8178 8.26551 14.7343L4.2258 10.4417C4.07479 10.2809 3.99389 10.0668 4.00091 9.84648C4.00792 9.62615 4.10227 9.41763 4.2632 9.26679C4.42413 9.11594 4.63846 9.03514 4.85904 9.04214C5.07961 9.04915 5.28836 9.1434 5.43937 9.30415L8.86398 12.9492L15.8545 5.31041C15.9254 5.22217 16.0137 5.14935 16.1138 5.09641C16.214 5.04348 16.3239 5.01156 16.4368 5.0026C16.5498 4.99365 16.6634 5.00785 16.7706 5.04434C16.8779 5.08083 16.9765 5.13884 17.0605 5.2148C17.1445 5.29076 17.212 5.38307 17.259 5.48606C17.306 5.58904 17.3314 5.70054 17.3337 5.81369C17.3359 5.92684 17.315 6.03926 17.2722 6.14404C17.2294 6.24882 17.1656 6.34376 17.0847 6.42301L9.48739 14.726C9.41062 14.811 9.31709 14.8792 9.21267 14.9263C9.10825 14.9735 8.99519 14.9986 8.88061 15H8.87229Z" fill="#003F5A"/>
            </svg>